<svg width="19" height="14" viewBox="0 0 19 14" fill="none" xmlns="http://www.w3.org/2000/svg">
<path d="M1.75891 6.74696L1.49191 7.00067L1.75891 7.25438C2.58421 8.03868 3.40901 8.82473 4.23401 9.611C5.50961 10.8268 6.78591 12.043 8.06551 13.2542L8.30531 13.4812L8.54591 13.255C8.77591 13.0386 9.00418 12.8199 9.23035 12.6019L9.49173 12.3499L9.23035 12.0979C8.34591 11.2453 7.44641 10.3903 6.54811 9.53653C5.94471 8.96306 5.34191 8.39008 4.74441 7.81862C8.13851 7.8163 9.74054 7.81664 11.5824 7.81704C13.1402 7.81737 14.8697 7.81774 18.0001 7.81657L18.35 7.81644L18.35 7.46657L18.35 6.53476L18.35 6.1849L18.0001 6.18476C15.0786 6.18367 13.3778 6.18392 11.8976 6.18414C9.91769 6.18443 8.33241 6.18466 4.74831 6.18155C5.51851 5.44307 6.29111 4.70879 7.06441 3.9739C7.78601 3.2881 8.50821 2.6017 9.22952 1.9109L9.4902 1.6613L9.23264 1.4084C9.00539 1.1853 8.77671 0.964903 8.54521 0.745803L8.30421 0.517603L8.06361 0.746303C7.01191 1.7457 5.96131 2.7464 4.91091 3.7469C3.86051 4.74748 2.81021 5.7479 1.75891 6.74696Z" fill="#FDFDFD" stroke="#FDFDFD" stroke-width="0.7"/>
</svg>
