<svg width="226" height="36" viewBox="0 0 226 36" fill="none" xmlns="http://www.w3.org/2000/svg">
<g clip-path="url(#clip0_4_296)">
<mask id="mask0_4_296" style="mask-type:luminance" maskUnits="userSpaceOnUse" x="0" y="0" width="226" height="36">
<path d="M225.5 0L0.738343 0L0.738343 36H225.5V0Z" fill="white"/>
</mask>
<g mask="url(#mask0_4_296)">
<path fill-rule="evenodd" clip-rule="evenodd" d="M58.5428 0L0.738343 0L0.738343 23.4744C0.738343 30.3896 6.74322 36 14.1444 36H71.9489V12.5256C71.9489 5.61049 65.9439 0 58.5428 0ZM65.0615 13.398C65.0615 9.50823 61.6866 6.35483 57.5233 6.35483H48.3062V14.7746H53.8056V29.6453H65.0615V13.398ZM7.62552 6.35483V22.602C7.62552 26.4918 11.0006 29.6453 15.1637 29.6453H18.8815V16.9035L33.1269 29.6453H44.5543V6.35483H33.2984V18.1281L20.3291 6.35483H7.62552Z" fill="#FF230A"/>
<path d="M84.653 6.35449H106C113.136 6.35449 115.114 8.92363 115.114 11.6769V12.1171C115.114 15.1264 112.365 16.3429 111.157 16.6551C112.861 17.0632 116.519 18.4398 116.519 22.5136V22.9539C116.519 26.6515 114.275 29.6529 106.197 29.6529H84.6445V6.35449H84.653ZM92.4654 11.2687V15.0543H104.664C106.839 15.0543 107.379 14.1179 107.379 13.1735V13.1095C107.379 12.1411 106.839 11.2607 104.664 11.2607H92.4654V11.2687ZM92.4654 20.0005V24.5706H105.332C107.944 24.5706 108.416 23.226 108.416 22.2895V22.1614C108.416 21.1611 107.91 20.0005 105.332 20.0005H92.4654Z" fill="white"/>
<path d="M146.174 6.35449V11.6448H127.611V15.0864H145.737V20.4168H127.611V24.2344H146.508V29.6529H119.901V6.35449H146.174Z" fill="white"/>
<path d="M149.361 6.35449H178.717V11.8609H167.957V29.6529H160.086V11.8609H149.361V6.35449Z" fill="white"/>
<path d="M189.232 26.73H185.363V29.355H189.232V26.73Z" fill="white"/>
<path d="M190.608 18.195V29.355H194.301V21.96L202.408 29.355H206.101V18.195H202.408V25.215L194.782 18.195H190.608Z" fill="white"/>
<path d="M221.405 27.615C221.614 28.08 221.839 28.95 221.887 29.355H224.135V23.1H215.722V25.215H220.41V25.245C220.41 25.545 219.35 26.835 215.786 26.835C212.495 26.835 211.275 25.29 211.275 23.835V23.67C211.275 22.125 212.174 20.655 215.818 20.655C219.559 20.655 219.977 21.99 220.073 22.245H224.054V22.23C223.974 20.715 222.834 18 216.14 18H215.449C208.578 18 207.358 21.345 207.358 23.52V23.94C207.358 26.175 208.851 29.55 215.321 29.55H215.658C219.35 29.55 220.908 28.185 221.405 27.615Z" fill="white"/>
</g>
</g>
<defs>
<clipPath id="clip0_4_296">
<rect width="225" height="36" fill="white" transform="translate(0.499986)"/>
</clipPath>
</defs>
</svg>
