<svg width="174" height="24" viewBox="0 0 174 24" fill="none" xmlns="http://www.w3.org/2000/svg">
<g style="mix-blend-mode:luminosity" clip-path="url(#clip0_4_281)">
<mask id="mask0_4_281" style="mask-type:luminance" maskUnits="userSpaceOnUse" x="-26" y="0" width="200" height="24">
<path d="M173.398 0L-25.6016 0V24L173.398 24V0Z" fill="white"/>
</mask>
<g mask="url(#mask0_4_281)">
<path fill-rule="evenodd" clip-rule="evenodd" d="M10.4041 0L-25.6016 0V15.6527C-25.6016 20.2648 -21.8635 24.0028 -17.2514 24.0028H18.7543V8.35018C18.7543 3.73808 15.0162 0 10.4041 0ZM14.4639 8.93096C14.4639 6.33737 12.36 4.23345 9.7664 4.23345L4.0269 4.23345V9.84769H7.449V19.7637H14.4639V8.93096ZM-21.3112 4.2363V15.069C-21.3112 17.6626 -19.2073 19.7665 -16.6137 19.7665H-14.2962V11.2712L-5.425 19.7665H1.6924V4.2363H-5.3226V12.0854L-13.4023 4.2363H-21.3112Z" fill="#FF230A"/>
<path d="M37.0603 20.0369C28.0639 20.0369 26.666 15.0063 26.666 12.2504V11.644C26.666 8.82552 27.876 3.96289 37.0603 3.96289H37.9173C46.9137 3.96289 48.3116 8.26467 48.3116 10.0782V10.3088H43.1557C43.0304 9.89029 42.4041 7.7209 37.4788 7.7209C32.824 7.7209 31.7593 9.80773 31.7593 11.7494V11.9999C31.7593 13.8362 32.992 16.259 37.5215 16.259C42.5521 16.259 43.0532 13.859 43.1785 13.5031H48.3344V13.7337C48.3344 15.6953 46.7884 20.0369 37.9173 20.0369H37.0603Z" fill="white"/>
<path d="M63.7765 16.9281H54.3615L52.9637 19.7666H48.0156L55.8647 4.23633H62.1679L70.4754 19.7666H65.237L63.7765 16.9281ZM58.9765 7.59861L56.0953 13.4207H61.9829L58.9765 7.59861Z" fill="white"/>
<path d="M79.574 20.037C71.4346 20.037 70.4951 16.5295 70.4951 14.4854V14.2548H75.568C75.631 15.1943 76.175 16.7174 80.181 16.7174H80.474C84.565 16.7174 85.026 15.9032 85.026 15.069C85.026 14.1722 84.545 13.6085 80.955 13.5032L78.282 13.4406C72.4795 13.2754 70.7058 11.311 70.7058 8.89109V8.70319C70.7058 6.38575 72.0837 3.96582 79.161 3.96582H80.602C87.95 3.96582 89.618 6.53379 89.618 8.87116V9.07899H84.568C84.462 8.49536 84.149 7.22276 80.081 7.22276H79.748C75.99 7.22276 75.719 7.88895 75.719 8.55799C75.719 9.22703 76.138 9.83059 79.309 9.89322L81.917 9.93593C87.762 10.0413 90.119 11.4591 90.119 14.548V14.8413C90.119 17.4092 88.827 20.0398 81.02 20.0398H79.58L79.574 20.037Z" fill="white"/>
<path d="M97.148 4.23633H92.285V19.7666H97.148V4.23633Z" fill="white"/>
<path d="M105.476 4.23633L115.392 14.0043V4.23633H120.192V19.7666H115.392L104.85 9.47476V19.7666H100.05V4.23633H105.476Z" fill="white"/>
<path d="M134.299 3.96289C144.067 3.96289 145.217 8.86823 145.217 11.644V12.2704C145.217 15.0035 144.089 20.0341 134.299 20.0341H133.402C123.571 20.0341 122.464 15.0035 122.464 12.2704V11.644C122.464 8.86823 123.571 3.96289 133.402 3.96289H134.299ZM140.124 11.7921C140.124 10.0184 139.102 7.7209 133.84 7.7209C128.579 7.7209 127.557 10.0156 127.557 11.7921V12.0426C127.557 13.8163 128.579 16.259 133.84 16.259C139.102 16.259 140.124 13.8789 140.124 12.0853V11.7921Z" fill="white"/>
<path d="M151.808 17.82H149.398V19.57H151.808V17.82Z" fill="white"/>
<path d="M160.715 18.41C160.845 18.72 160.985 19.3 161.015 19.57H162.415V15.4H157.175V16.81H160.095V16.83C160.095 17.03 159.435 17.89 157.215 17.89C155.165 17.89 154.405 16.86 154.405 15.89V15.78C154.405 14.75 154.965 13.77 157.235 13.77C159.565 13.77 159.825 14.66 159.885 14.83H162.365V14.82C162.315 13.81 161.605 12 157.435 12H157.005C152.725 12 151.965 14.23 151.965 15.68V15.96C151.965 17.45 152.895 19.7 156.925 19.7H157.135C159.435 19.7 160.405 18.79 160.715 18.41Z" fill="white"/>
<path d="M165.747 16.93H168.787C169.937 16.93 170.337 17.33 170.337 18.24V19.1C170.337 19.36 170.377 19.48 170.447 19.57H172.817V19.52C172.757 19.4 172.677 19.21 172.677 18.61V17.52C172.677 16.57 172.027 16.01 171.267 15.81C171.757 15.66 172.647 15.24 172.647 14.18V14.06C172.647 12.99 171.897 12.13 169.417 12.13H163.417V19.57H165.747V16.93ZM165.747 13.82H169.277C169.957 13.82 170.217 14.15 170.217 14.54V14.55C170.217 14.96 169.937 15.28 169.277 15.28H165.747V13.82Z" fill="white"/>
</g>
</g>
<defs>
<clipPath id="clip0_4_281">
<rect width="200" height="24" fill="white" transform="translate(-26.5)"/>
</clipPath>
</defs>
</svg>
