<svg width="98" height="34" viewBox="0 0 98 34" fill="none" xmlns="http://www.w3.org/2000/svg">
<g style="mix-blend-mode:luminosity" clip-path="url(#clip0_4_320)">
<path d="M42.6024 15.4969L43.1701 12.1899C44.3944 12.4905 45.5019 12.6409 46.4925 12.6409C46.9934 12.6409 47.433 12.6353 47.8115 12.6242C48.201 12.6019 48.5461 12.5685 48.8466 12.524V11.5218L47.0435 11.3715C46.231 11.2936 45.552 11.16 45.0066 10.9707C44.4612 10.7814 44.0216 10.5253 43.6877 10.2024C43.3649 9.86837 43.1311 9.4731 42.9864 9.01658C42.8529 8.54893 42.7861 8.00334 42.7861 7.37981C42.7861 6.52245 42.8751 5.80985 43.0532 5.24199C43.2313 4.66299 43.5151 4.20091 43.9047 3.85574C44.2943 3.49944 44.7951 3.24891 45.4073 3.10416C46.0306 2.95941 46.7875 2.88704 47.6779 2.88704C49.4477 2.88704 51.0504 3.05406 52.4863 3.38809L51.9854 6.59483C50.7388 6.39441 49.7426 6.2942 48.9969 6.2942C48.2511 6.2942 47.6167 6.3276 47.0936 6.39441V7.37981L48.5294 7.51342C49.4087 7.6025 50.1433 7.75282 50.7332 7.96437C51.3231 8.16479 51.7962 8.43202 52.1524 8.76606C52.5197 9.10009 52.7757 9.49537 52.9204 9.95188C53.0762 10.4084 53.1541 10.9317 53.1541 11.5218C53.1541 12.3681 53.0428 13.0807 52.8202 13.6597C52.5976 14.2387 52.3304 14.6785 52.0188 14.9791C51.7628 15.2241 51.4456 15.4189 51.0671 15.5637C50.6887 15.6973 50.288 15.7975 49.865 15.8643C49.4421 15.9311 49.0136 15.9701 48.5795 15.9812C48.1565 16.0035 47.7725 16.0146 47.4275 16.0146C46.5593 16.0146 45.7245 15.9701 44.9231 15.881C44.1217 15.7919 43.3482 15.6639 42.6024 15.4969Z" fill="white"/>
<path d="M54.3651 2.68662L58.372 2.38599V12.8413C58.5835 12.8858 58.7727 12.9192 58.9397 12.9415C59.1066 12.9638 59.2457 12.9805 59.3571 12.9916L59.1734 15.9311C57.4704 15.9311 56.3406 15.8309 55.7841 15.6305C55.3166 15.4635 54.9604 15.2463 54.7156 14.9791C54.4818 14.7119 54.3651 14.3277 54.3651 13.8267V2.68662Z" fill="white"/>
<path d="M59.8618 10.7035C59.8618 8.9108 60.2792 7.58023 61.1139 6.71174C61.9487 5.83211 63.3011 5.3923 65.171 5.3923C67.0409 5.3923 68.3933 5.83211 69.228 6.71174C70.0628 7.58023 70.4802 8.9108 70.4802 10.7035C70.4802 12.4961 70.0628 13.8323 69.228 14.7119C68.3933 15.5804 67.0409 16.0146 65.171 16.0146C63.3456 16.0146 62.0044 15.5859 61.1473 14.7286C60.2903 13.8712 59.8618 12.5295 59.8618 10.7035ZM64.1692 9.1669V13.0918H64.787C65.2767 13.0918 65.6273 13.0417 65.8388 12.9415C66.0614 12.8413 66.1727 12.6075 66.1727 12.24V8.31511H65.555C65.0653 8.31511 64.7091 8.36521 64.4865 8.46543C64.275 8.56564 64.1692 8.79946 64.1692 9.1669Z" fill="white"/>
<path d="M72.1858 8.28171H71.184V5.69293H72.1858V4.08957L76.1927 3.08746V5.69293H77.5785V8.28171H76.1927V12.8413C76.3597 12.8747 76.5433 12.9081 76.7437 12.9415C76.944 12.9638 77.1555 12.9805 77.3781 12.9916L77.1945 15.9311C75.3691 15.9311 74.1781 15.8309 73.6216 15.6305C73.1541 15.4635 72.798 15.2519 72.5531 14.9958C72.3082 14.7286 72.1858 14.3389 72.1858 13.8267V8.28171Z" fill="white"/>
<path d="M79.7432 6.09378C80.6003 5.62613 81.7745 5.3923 83.266 5.3923C84.7686 5.3923 86.1432 5.59829 87.3898 6.01027L86.9224 8.73265C86.3992 8.57677 85.8817 8.46543 85.3697 8.39862C84.8577 8.33181 84.3345 8.29841 83.8003 8.29841C83.6445 8.29841 83.4497 8.30397 83.2159 8.31511C82.9933 8.32624 82.7373 8.34851 82.4479 8.38192V9.01658C83.0601 9.01658 83.689 9.04999 84.3345 9.11679C84.9801 9.17247 85.5645 9.31721 86.0876 9.55104C86.6218 9.77373 87.0559 10.1133 87.3898 10.5698C87.7349 11.0152 87.9074 11.6276 87.9074 12.407C87.9074 12.9526 87.8462 13.4425 87.7238 13.8768C87.6013 14.2999 87.4121 14.6395 87.1561 14.8956C86.889 15.1517 86.6107 15.3577 86.3213 15.5136C86.0431 15.6694 85.6758 15.7808 85.2194 15.8476C84.8632 15.9033 84.4792 15.9422 84.0674 15.9645C83.6667 15.9979 83.2326 16.0146 82.7652 16.0146C81.129 16.0146 79.6319 15.8198 78.274 15.4301L78.7749 12.5908C79.3425 12.7578 79.9269 12.8858 80.5279 12.9749C81.129 13.064 81.7578 13.1085 82.4145 13.1085C82.7151 13.1085 82.9989 13.1029 83.266 13.0918C83.5443 13.0807 83.8114 13.0584 84.0674 13.025V12.3903C82.9989 12.3903 82.1029 12.3235 81.3794 12.1899C80.6671 12.0452 80.0884 11.828 79.6432 11.5385C79.2091 11.2491 78.8973 10.8705 78.7081 10.4028C78.53 9.93518 78.441 9.37845 78.441 8.73265C78.441 7.44105 78.8751 6.56142 79.7432 6.09378Z" fill="white"/>
<path d="M47.0268 25.7398L46.793 31.8193H42.6024L43.3704 19.2929H48.5962L50.1489 25.673H50.2991L51.8518 19.2929H57.0943L57.8456 31.8193H53.655L53.4212 25.7398H53.2877L51.7517 31.8193H48.6964L47.1437 25.7398H47.0268Z" fill="white"/>
<path d="M63.0513 31.8193H59.0443V22.2992L63.0513 21.7982V31.8193ZM58.8273 19.9109C58.8273 19.6103 58.8606 19.3597 58.9274 19.1593C58.9942 18.9478 59.1111 18.7807 59.278 18.6583C59.445 18.5247 59.6732 18.43 59.9626 18.3743C60.252 18.3187 60.6193 18.2908 61.0645 18.2908C61.5097 18.2908 61.8714 18.3187 62.1497 18.3743C62.4391 18.43 62.6673 18.5247 62.8342 18.6583C63.0012 18.7807 63.118 18.9478 63.1848 19.1593C63.2516 19.3597 63.285 19.6103 63.285 19.9109C63.285 20.2115 63.2516 20.4621 63.1848 20.6625C63.118 20.8629 63.0012 21.0299 62.8342 21.1635C62.6673 21.286 62.4391 21.3751 62.1497 21.4308C61.8714 21.4753 61.5097 21.4976 61.0645 21.4976C60.7417 21.4976 60.4412 21.4864 60.1629 21.4642C59.8958 21.4419 59.662 21.3807 59.4617 21.2804C59.2613 21.1691 59.1055 21.0076 58.9942 20.7961C58.8829 20.5845 58.8273 20.2895 58.8273 19.9109Z" fill="white"/>
<path d="M64.7625 21.7982H66.7659L67.7677 22.8003C69.0032 21.9318 70.3388 21.4976 71.7746 21.4976C72.7207 21.4976 73.4553 21.7036 73.9785 22.1155C74.5127 22.5164 74.7799 23.0787 74.7799 23.8024V31.8193H70.7729V24.8045H70.1552C69.6988 24.8045 69.3538 24.8546 69.12 24.9548C68.8863 25.0439 68.7694 25.2499 68.7694 25.5728V31.8193H64.7625V21.7982Z" fill="white"/>
<path d="M80.2896 28.4121V29.1136C80.4899 29.1358 80.6903 29.1525 80.8906 29.1637C81.091 29.1748 81.2913 29.1804 81.4917 29.1804C82.7383 29.1804 83.996 28.98 85.2649 28.5791L85.7324 31.5186C84.2298 31.9195 82.7494 32.1199 81.2913 32.1199C79.4214 32.1199 78.0691 31.6856 77.2343 30.8171C76.3995 29.9375 75.9821 28.6014 75.9821 26.8087C75.9821 25.0161 76.3995 23.6855 77.2343 22.817C78.0802 21.9374 79.4326 21.4976 81.2913 21.4976C82.2263 21.4976 83.0054 21.5588 83.6287 21.6813C84.252 21.7926 84.7529 21.9875 85.1313 22.2658C85.5209 22.5331 85.7936 22.9005 85.9494 23.3682C86.1164 23.8247 86.1999 24.4037 86.1999 25.1051C86.1999 25.6841 86.0997 26.1852 85.8993 26.6083C85.7101 27.0203 85.3873 27.3599 84.931 27.6271C84.4746 27.8943 83.868 28.0948 83.1112 28.2284C82.3543 28.3509 81.4138 28.4121 80.2896 28.4121ZM80.2896 25.2722V26.0905H81.1077C81.5974 26.0905 81.948 26.0404 82.1595 25.9402C82.3821 25.84 82.4934 25.6062 82.4934 25.2388V24.4204H81.6753C81.1856 24.4204 80.8294 24.4705 80.6068 24.5707C80.3953 24.6709 80.2896 24.9047 80.2896 25.2722Z" fill="white"/>
<path d="M88.3682 22.199C89.2253 21.7314 90.3995 21.4976 91.891 21.4976C93.3936 21.4976 94.7682 21.7036 96.0148 22.1155L95.5474 24.8379C95.0242 24.682 94.5067 24.5707 93.9947 24.5039C93.4827 24.4371 92.9595 24.4037 92.4253 24.4037C92.2695 24.4037 92.0747 24.4092 91.8409 24.4204C91.6183 24.4315 91.3623 24.4538 91.0729 24.4872V25.1218C91.6851 25.1218 92.314 25.1552 92.9595 25.2221C93.6051 25.2777 94.1895 25.4225 94.7126 25.6563C95.2468 25.879 95.6809 26.2186 96.0148 26.6751C96.3599 27.1205 96.5324 27.7329 96.5324 28.5123C96.5324 29.0579 96.4712 29.5478 96.3488 29.9821C96.2263 30.4052 96.0371 30.7448 95.7811 31.0009C95.514 31.257 95.2357 31.4629 94.9463 31.6188C94.6681 31.7747 94.3008 31.8861 93.8444 31.9529C93.4882 32.0085 93.1042 32.0475 92.6924 32.0698C92.2917 32.1032 91.8576 32.1199 91.3902 32.1199C89.754 32.1199 88.2569 31.925 86.899 31.5353L87.3999 28.696C87.9675 28.863 88.5519 28.9911 89.1529 29.0802C89.754 29.1692 90.3828 29.2138 91.0395 29.2138C91.3401 29.2138 91.6239 29.2082 91.891 29.1971C92.1693 29.1859 92.4364 29.1637 92.6924 29.1303V28.4956C91.6239 28.4956 90.7279 28.4288 90.0044 28.2952C89.2921 28.1504 88.7134 27.9333 88.2682 27.6438C87.8341 27.3543 87.5223 26.9757 87.3331 26.5081C87.155 26.0404 87.066 25.4837 87.066 24.8379C87.066 23.5463 87.5001 22.6667 88.3682 22.199Z" fill="white"/>
<path fill-rule="evenodd" clip-rule="evenodd" d="M24.2256 1.35885C23.2149 0.347812 21.7417 -0.047089 20.3611 0.322977L7.54377 3.75864C6.53426 4.02923 5.68646 4.67877 5.15928 5.54832C5.47206 5.58872 5.76982 5.63215 6.03705 5.67658L6.43337 5.73441C12.374 6.59925 24.6164 8.38148 32.8146 21.4379L34.6437 14.6088C35.0134 13.2286 34.6188 11.7559 33.6086 10.7452L24.2256 1.35885ZM32.3817 23.054L28.7578 24.8612C27.886 22.9482 25.3054 18.4962 21.9576 15.992L17.2498 21.7309H15.6806L9.14266 30.1033L9.15638 30.117L6.89422 33.0394C6.89422 33.0394 8.83576 31.2108 10.0636 31.1534C10.1051 31.1515 10.1438 31.1472 10.1797 31.1407L11.6993 32.661C12.71 33.672 14.1832 34.0669 15.5638 33.6968L28.3812 30.2612C29.7613 29.8913 30.8391 28.8132 31.2088 27.433L32.3817 23.054ZM6.22272 27.1823L12.542 18.6006V17.2963L15.6806 12.34C14.9321 11.2617 13.0762 9.23081 5.14398 6.90992C4.30555 6.61685 2.31999 6.09435 1.26686 6.33397C2.08541 6.44042 3.93872 7.62875 4.21383 8.46249L1.28126 19.411C0.911566 20.7912 1.30615 22.2639 2.31641 23.2746L4.52058 25.4795C4.52038 25.5284 4.52862 25.5878 4.54637 25.6588C4.8445 26.8518 3.65196 30.7291 3.65196 30.7291L6.20038 27.16L6.22272 27.1823ZM28.6954 13.6604L31.8258 18.2029L32.273 12.8345L28.6954 13.6604ZM27.9207 25.3482L22.9112 26.8855L22.9911 23.5712L27.9207 25.3482ZM27.544 28.6436L28.8662 26.1458L26.3103 27.3504L27.544 28.6436Z" fill="#FFC736"/>
</g>
<defs>
<clipPath id="clip0_4_320">
<rect width="97" height="34" fill="white" transform="translate(0.499939)"/>
</clipPath>
</defs>
</svg>
