<svg width="93" height="44" viewBox="0 0 93 44" fill="none" xmlns="http://www.w3.org/2000/svg">
<g style="mix-blend-mode:luminosity" clip-path="url(#clip0_4_332)">
<path fill-rule="evenodd" clip-rule="evenodd" d="M17.7832 5.4606V3.49632C17.7832 3.49632 15.4012 2.57965 14.2103 2.05584C13.0193 1.53203 11.5327 1.95645 11.8382 2.87652C12.1024 3.67114 13.8367 4.32053 15.3184 5.42027C16.3159 6.16067 16.657 6.54842 16.5247 8.90557C16.3924 11.2627 15.8739 12.9249 18.5097 12.5722C21.7321 12.1411 23.1843 11.5204 26.9951 9.81948C26.9951 9.81948 24.929 2.14751 22.8118 0.707031C22.8118 0.707031 21.3562 4.28203 17.7832 5.4606Z" fill="#E65B2E"/>
<path fill-rule="evenodd" clip-rule="evenodd" d="M30.7517 11.3356C32.954 10.2428 34.7881 8.81555 35.251 10.0261C37.1036 14.8713 28.3317 21.1549 28.3317 21.1549C38.1976 15.2329 36.442 9.89512 35.648 8.71655C34.854 7.53798 33.9277 7.66893 30.2224 9.50227C25.0254 12.0738 21.1895 13.8237 17.5187 13.8237C14.7397 13.8237 9.97584 13.4308 3.62396 9.50227C3.62396 9.50227 10.3728 15.657 17.5187 15.657C23.7256 15.657 28.6358 12.3857 30.7517 11.3356Z" fill="#E65B2E"/>
<path fill-rule="evenodd" clip-rule="evenodd" d="M1.7724 6.7347C3.88969 6.07994 4.41902 7.52042 6.53631 8.69899C4.77499 9.16871 3.82895 7.06758 1.7724 6.7347Z" fill="#BA3F20"/>
<mask id="mask0_4_332" style="mask-type:luminance" maskUnits="userSpaceOnUse" x="12" y="0" width="6" height="2">
<path fill-rule="evenodd" clip-rule="evenodd" d="M12.371 0L17.2541 0V1.97066H12.371V0Z" fill="white"/>
</mask>
<g mask="url(#mask0_4_332)">
<path fill-rule="evenodd" clip-rule="evenodd" d="M12.371 0.189029C14.4168 -0.490483 15.0638 0.80241 17.2541 1.84191C15.4755 2.52142 14.9462 0.295231 12.371 0.189029Z" fill="#BA3F20"/>
</g>
<path fill-rule="evenodd" clip-rule="evenodd" d="M19.1438 18.2954C19.1557 18.738 19.022 19.1584 18.891 19.4609C18.5351 19.3443 18.1816 19.2801 17.8033 19.2801C17.4235 19.2801 17.0715 19.3247 16.7182 19.415C16.5752 19.1322 16.4442 18.7341 16.4442 18.2378C16.4442 17.3826 16.4747 17.0396 17.7503 17.0396C19.026 17.0396 19.1213 17.4468 19.1438 18.2954Z" fill="#ECB87F"/>
<path fill-rule="evenodd" clip-rule="evenodd" d="M17.3031 18.2091C17.3057 18.6647 17.45 19.0302 17.5942 19.2855C17.2925 19.2986 17.0053 19.3418 16.7182 19.4152C16.5752 19.1323 16.4442 18.7342 16.4442 18.2379C16.4442 17.4103 16.4732 17.062 17.6299 17.041C17.4711 17.3016 17.2991 17.7023 17.3031 18.2091Z" fill="#ECB87F"/>
<path fill-rule="evenodd" clip-rule="evenodd" d="M17.7308 20.1973C19.8298 20.1973 21.1391 22.1568 26.6412 24.3482C26.6412 24.3482 26.5225 25.3358 26.185 25.8003C24.5416 26.2429 22.5032 24.8133 22.5032 24.8133C22.6018 25.3656 24.3346 27.3027 25.7846 27.3365C25.7846 27.3365 25.4662 27.9568 23.64 28.3841C23.9466 29.0275 24.8282 29.3422 24.8282 29.3422C22.1659 31.9115 22.9878 33.6751 17.7946 38.7048C18.0413 37.1768 18.7073 35.9262 18.1173 34.8072C17.438 33.5187 16.0412 33.1122 15.674 31.9986C15.2472 30.488 16.7825 30.097 16.9973 27.8761C16.9973 27.8761 14.6703 28.3551 12.294 27.3245C12.294 27.3245 15.3156 25.96 15.8616 23.7101C15.8616 23.7101 12.4769 24.9887 8.94818 24.3482C14.4137 21.5615 15.6318 20.1973 17.7308 20.1973Z" fill="#3AB563"/>
<path fill-rule="evenodd" clip-rule="evenodd" d="M10.3374 26.9253C10.3374 26.9253 10.7868 28.7713 12.0741 29.9102C13.1317 30.8459 13.4597 32.0624 13.8133 33.1327C13.8133 33.1327 12.8016 31.4345 11.4545 30.2419C10.2282 29.1562 10.3374 26.9253 10.3374 26.9253Z" fill="#1D753D"/>
<path fill-rule="evenodd" clip-rule="evenodd" d="M26.45 21.4258C26.45 21.4258 29.1932 22.6912 32.8066 22.7976L30.8417 26.4867L29.4951 26.5932C29.4951 26.5932 32.3715 27.3599 34.2325 30.2275C32.0878 31.2304 29.616 32.603 27.0558 34.4876C22.6848 37.7054 19.6919 41.2123 17.7436 43.9305C14.6677 41.0309 13.5761 39.6917 13.5761 39.6917C16.2898 41.2738 17.6516 42.8375 17.6516 42.8375C19.6976 39.8596 22.3773 36.6245 25.629 33.3034C27.3845 31.5106 29.1232 29.9232 30.7928 28.5221C29.8004 27.96 28.8077 27.3981 27.8151 26.8361L30.3408 23.276C30.3408 23.276 27.6542 22.7523 26.45 21.4258Z" fill="#E65B2E"/>
<mask id="mask1_4_332" style="mask-type:luminance" maskUnits="userSpaceOnUse" x="1" y="21" width="8" height="14">
<path fill-rule="evenodd" clip-rule="evenodd" d="M1.17865 21.4258H8.96115V34.4876H1.17865L1.17865 21.4258Z" fill="white"/>
</mask>
<g mask="url(#mask1_4_332)">
<path fill-rule="evenodd" clip-rule="evenodd" d="M8.96116 21.4258C8.96116 21.4258 7.14756 22.5495 3.5348 22.9875L6.2763 26.6539C6.2763 26.6539 3.21893 28.0395 1.17865 30.2275C3.32334 31.2306 5.79514 32.603 8.35535 34.4876C6.17665 31.3583 3.23243 29.2413 3.23243 29.2413L3.97573 29.3538C3.97573 29.3538 6.07555 27.6264 7.59603 26.8361L5.07037 23.276C5.07037 23.276 7.75695 22.7523 8.96116 21.4258Z" fill="#BA3F20"/>
</g>
<path fill-rule="evenodd" clip-rule="evenodd" d="M26.7606 15.9796C26.9602 15.848 28.2079 15.3744 28.2682 16.6045C28.3342 17.9545 27.4867 19.6854 27.4867 19.6854C27.9994 16.6154 27.6409 16.1201 27.0084 16.2507C26.8664 16.2724 26.7606 15.9796 26.7606 15.9796Z" fill="#ECB87F"/>
<path fill-rule="evenodd" clip-rule="evenodd" d="M26.995 9.81919C26.4842 10.047 26.0158 10.2566 25.5804 10.4478C24.7864 6.27169 23.1905 1.79704 22.7988 0.7324C22.808 0.715377 22.8121 0.70752 22.8121 0.70752C24.9294 2.148 26.995 9.81919 26.995 9.81919Z" fill="#FF8142"/>
<path fill-rule="evenodd" clip-rule="evenodd" d="M20.8628 12.1527C20.1548 12.319 19.4005 12.4526 18.5101 12.5718C15.874 12.9254 16.3928 11.2623 16.5251 8.90512C16.6574 6.54797 16.316 6.16035 15.3183 5.42047C13.8373 4.32047 12.1026 3.67082 11.8393 2.87607C11.5335 1.95678 13.0195 1.5325 14.2105 2.05631C15.4015 2.58012 17.7834 3.49678 17.7834 3.49678V5.46107C18.4041 5.25678 18.96 4.97916 19.4562 4.66095C18.9877 6.14202 18.4095 8.66154 19.9576 11.0239C20.1495 11.3173 20.5122 11.7834 20.8628 12.1527Z" fill="#BA3F20"/>
<mask id="mask2_4_332" style="mask-type:luminance" maskUnits="userSpaceOnUse" x="20" y="7" width="17" height="7">
<path fill-rule="evenodd" clip-rule="evenodd" d="M20.1786 7.95361H36.2974V13.5397H20.1786V7.95361Z" fill="white"/>
</mask>
<g mask="url(#mask2_4_332)">
<path fill-rule="evenodd" clip-rule="evenodd" d="M35.1945 9.03843C34.4927 8.72585 33.7899 8.49773 28.2381 11.194C23.932 13.2852 20.1786 13.5397 20.1786 13.5397L20.1802 13.5382C23.09 12.9463 26.2605 11.4626 30.2227 9.50227C33.9279 7.66893 34.8543 7.53798 35.6482 8.71655C35.9473 9.16074 36.3831 10.1951 36.2826 11.6284C36.2826 11.6284 36.0273 9.40955 35.1945 9.03843Z" fill="#FF8142"/>
</g>
<path fill-rule="evenodd" clip-rule="evenodd" d="M23.0563 14.8238C21.3783 15.3188 19.5151 15.6567 17.5182 15.6567C10.4836 15.6567 3.83396 9.69312 3.62885 9.50586C5.92479 10.9254 8.01428 11.8826 9.87617 12.5269L9.87882 12.5282C10.006 12.6199 14.8268 16.0234 23.0563 14.8238Z" fill="#BA3F20"/>
<path fill-rule="evenodd" clip-rule="evenodd" d="M17.3031 18.2091C17.3057 18.6647 17.45 19.0302 17.5942 19.2855C17.2925 19.2986 17.0053 19.3418 16.7182 19.4152C16.5752 19.1323 16.4442 18.7342 16.4442 18.2379C16.4442 17.4103 16.4732 17.062 17.6299 17.041C17.4711 17.3016 17.2991 17.7023 17.3031 18.2091Z" fill="#CC9666"/>
<path fill-rule="evenodd" clip-rule="evenodd" d="M22.5033 24.8129C22.6012 25.3655 24.3347 27.3023 25.7851 27.3363C25.7851 27.3363 25.4661 27.9571 23.64 28.384C23.947 29.0269 24.8283 29.3412 24.8283 29.3412C22.1658 31.9105 22.9876 33.6744 17.7949 38.7043C18.4711 37.9644 20.0115 36.2044 21.1455 34.0738C21.6815 33.0656 22.0507 32.1187 22.187 31.7665C22.621 30.6416 22.7322 30.085 22.7732 29.865C22.8976 29.1893 22.9148 28.6144 22.9055 28.2098C23.3158 28.1011 23.7273 27.9924 24.1375 27.8824C23.7869 27.7122 22.8725 27.2067 22.2677 26.1198C21.7688 25.2228 21.7318 24.3794 21.7397 23.9853C21.8813 24.0193 22.1023 24.0521 22.367 24.018C22.7441 23.9696 23.0127 23.8072 23.1477 23.7129C22.3418 23.1616 21.4684 22.4492 20.6256 21.5325C20.468 21.361 20.3185 21.1894 20.1756 21.0205C21.5359 21.7931 23.3277 23.0293 26.6414 24.348C26.6414 24.348 26.5221 25.3354 26.1847 25.8003C24.5411 26.2429 22.5033 24.8129 22.5033 24.8129Z" fill="#49E484"/>
<path fill-rule="evenodd" clip-rule="evenodd" d="M17.1417 31.5192C16.979 32.6847 17.4433 33.7179 17.8734 34.4172C17.147 33.4219 16.0024 32.9911 15.674 31.9985C15.2479 30.4886 16.7831 30.097 16.9973 27.8761C16.9973 27.8761 14.6711 28.3554 12.2943 27.3248C12.2943 27.3248 15.3154 25.9603 15.8621 23.7105C15.8621 23.7105 12.4771 24.9886 8.94916 24.3482C14.1522 21.6951 15.5048 20.3306 17.4342 20.2075H17.4367C17.5598 20.8505 17.6552 21.7514 17.5228 22.8095C17.3204 24.4268 16.6852 25.6263 16.2617 26.2942C16.5039 26.3728 16.9538 26.4854 17.5148 26.4199C18.0163 26.361 18.3936 26.1829 18.6079 26.0611C18.5643 27.5788 18.2348 28.7011 17.9329 29.458C17.5718 30.3655 17.2489 30.7453 17.1417 31.5192Z" fill="#1D753D"/>
<path fill-rule="evenodd" clip-rule="evenodd" d="M34.2331 30.228C32.088 31.2311 29.6161 32.6035 27.0556 34.4879C25.6792 35.5001 24.4393 36.5425 23.3264 37.5797C23.2483 37.6517 23.1715 37.7237 23.0962 37.7957C23.0195 37.8678 22.9427 37.9398 22.8685 38.0131C22.7654 38.1113 22.6647 38.2095 22.5641 38.3078C22.4637 38.4047 22.3657 38.5029 22.2677 38.6011C22.1699 38.6993 22.0732 38.7962 21.9767 38.8944C21.8828 38.99 21.7901 39.0869 21.6962 39.1825C23.0008 37.4094 24.6881 35.4556 26.8437 33.5437C28.8818 31.7379 30.8879 30.3694 32.6504 29.3415C32.6504 29.3415 32.3963 28.6212 31.7228 27.6836C32.5208 28.2231 33.406 29.001 34.1459 30.0957C34.1803 30.1468 34.2093 30.1913 34.2331 30.228Z" fill="#FF8142"/>
<path fill-rule="evenodd" clip-rule="evenodd" d="M32.8066 22.7978L30.8413 26.4867L30.3664 26.5247C30.6812 25.8319 31.2358 24.2933 31.4687 23.2011C31.4687 23.2011 31.2861 22.9903 29.7656 22.439C30.3135 22.5516 30.9143 22.6485 31.5533 22.714C31.9556 22.7559 32.3751 22.7847 32.8066 22.7978Z" fill="#FF8142"/>
<path fill-rule="evenodd" clip-rule="evenodd" d="M16.0408 19.6639C15.5623 19.8108 13.7192 20.8074 12.5402 21.4791C12.0836 21.0064 11.3929 20.222 10.9085 19.3577C10.1265 17.9631 10.2548 16.0459 10.2548 16.0459C11.1203 15.7984 11.9328 16.4347 11.9328 16.4347C11.5358 16.6966 11.5358 16.9585 11.5358 16.9585C12.9069 18.7197 14.387 17.4376 15.0263 18.297C15.0263 18.297 13.9909 18.6985 13.5764 19.7328C14.728 18.9417 15.8285 19.1927 15.8285 19.1927C15.9015 19.4612 16.0408 19.6639 16.0408 19.6639Z" fill="#CC9666"/>
<path fill-rule="evenodd" clip-rule="evenodd" d="M23.3618 21.6087L25.2528 20.9172C25.2197 20.95 24.6348 21.5458 24.0762 22.2582C22.4712 21.462 20.7366 20.1671 19.5557 19.688C19.5557 19.688 19.6827 19.3721 19.7187 19.1926C19.7187 19.1926 20.8102 18.9397 22.0313 19.7091C21.6793 18.6208 20.5714 18.2919 20.5714 18.2919C21.3113 17.4373 23.0567 18.673 23.9841 16.9921C23.9841 16.9921 23.9841 16.7302 23.5871 16.4682C23.5871 16.4682 24.8092 15.7553 25.921 16.0576C25.921 16.0576 26.0494 17.9747 25.2672 19.3694C24.4852 20.7653 23.3618 21.6087 23.3618 21.6087Z" fill="#ECB87F"/>
<path fill-rule="evenodd" clip-rule="evenodd" d="M25.2661 19.3693C24.508 20.722 23.4307 21.5549 23.3632 21.6059C23.821 21.0664 24.6284 19.9638 24.9512 18.357C25.1391 17.4233 25.1009 16.5859 25.0229 16.0005C25.3193 15.9573 25.6328 15.9789 25.908 16.0549C25.9119 16.0549 25.9158 16.0562 25.9198 16.0575C25.9198 16.0575 26.0482 17.9746 25.2661 19.3693Z" fill="#FFD8AD"/>
<path fill-rule="evenodd" clip-rule="evenodd" d="M18.9573 18.2679C18.9672 18.6372 18.8557 18.988 18.7464 19.2403C18.7011 19.225 18.2634 18.5861 18.4738 17.9292C18.5382 17.7278 18.6316 17.5631 18.7267 17.4375C18.9187 17.609 18.9474 17.8843 18.9573 18.2679Z" fill="#FFD8AD"/>
<path fill-rule="evenodd" clip-rule="evenodd" d="M14.3557 16.9913C14.2314 17.3396 13.8462 17.5216 13.4942 17.3986C13.1422 17.2755 12.9583 16.8957 13.0828 16.5474L13.3063 16.6259V16.6351C13.3063 16.88 13.5074 17.0777 13.7536 17.0777C13.8979 17.0777 14.0262 17.0096 14.1084 16.9049L14.3557 16.9913Z" fill="white"/>
<path fill-rule="evenodd" clip-rule="evenodd" d="M22.0069 17.3986C21.6549 17.5216 21.2698 17.3396 21.1454 16.9913L21.4021 16.9022C21.4829 17.0096 21.6125 17.0777 21.7581 17.0777C22.0042 17.0777 22.2041 16.88 22.2041 16.6351C22.2041 16.6312 22.2041 16.6259 22.2027 16.622L22.4184 16.5474C22.5428 16.8957 22.3589 17.2755 22.0069 17.3986Z" fill="white"/>
<path fill-rule="evenodd" clip-rule="evenodd" d="M69.713 28.7553C69.1076 29.0017 68.5303 29.1249 67.9812 29.1249C67.5165 29.1249 67.0941 29.0369 66.714 28.8609C66.3338 28.6849 66.0029 28.4244 65.7213 28.0795C65.4397 27.7345 65.218 27.291 65.056 26.7489C64.8941 26.2068 64.8132 25.5556 64.8132 24.7953C64.8132 24.0068 64.9117 23.1761 65.1088 22.3032C65.306 21.4302 65.5735 20.5643 65.9114 19.7054C66.2493 18.8465 66.6647 18.0299 67.1575 17.2555C67.6503 16.4811 68.1924 15.7947 68.7837 15.1963C69.3751 14.5979 70.0087 14.1227 70.6845 13.7707C71.3604 13.4187 72.0643 13.2427 72.7965 13.2427C73.4301 13.2427 73.9546 13.3729 74.3699 13.6334C74.7853 13.8939 75.1091 14.2318 75.3415 14.6472C75.5738 15.0625 75.7392 15.5307 75.8378 16.0516C75.9363 16.5726 75.9856 17.0936 75.9856 17.6145C75.9856 18.7691 75.8624 19.8568 75.616 20.8776C75.3696 21.8984 75.0423 22.8347 74.6339 23.6865C74.2256 24.5384 73.7504 25.2987 73.2084 25.9675C72.6663 26.6363 72.0995 27.2065 71.5082 27.6782C70.9168 28.1499 70.3184 28.5089 69.713 28.7553ZM57.1536 29.0827C57.5338 28.956 57.9597 28.8468 58.4314 28.7553C58.9031 28.6638 59.3853 28.5899 59.8781 28.5336C60.3709 28.4772 60.8602 28.435 61.346 28.4068C61.8317 28.3787 62.2928 28.3646 62.7293 28.3646C62.842 28.3646 62.9511 28.3681 63.0567 28.3752L63.2177 28.3831L63.384 28.3857C63.37 28.3294 63.3524 28.2203 63.3312 28.0584C63.3101 27.8964 63.282 27.7099 63.2468 27.4987C63.2116 27.2875 63.1799 27.0516 63.1517 26.7912C63.1236 26.5307 63.1024 26.2667 63.0884 25.9992C62.7786 25.9992 62.4231 26.0027 62.0218 26.0097C61.6205 26.0168 61.2439 26.0344 60.8919 26.0625C60.9623 25.5697 61.0538 25.0065 61.1664 24.3729C61.2791 23.7393 61.4058 23.0846 61.5466 22.4088C61.6874 21.7329 61.8352 21.0395 61.9901 20.3284C62.145 19.6174 62.2999 18.931 62.4548 18.2692C62.8068 16.7204 63.1728 15.1294 63.553 13.4961L59.857 13.9819C59.4628 15.8968 59.0896 17.7764 58.7376 19.6209C58.5828 20.3953 58.4314 21.2049 58.2836 22.0497C58.1357 22.8945 57.9879 23.7323 57.84 24.563C57.6922 25.3937 57.562 26.1963 57.4493 26.9707C57.3367 27.7451 57.2381 28.4491 57.1536 29.0827ZM50.5501 29.0827C51.3527 29.0827 52.1024 28.956 52.7994 28.7025C53.4964 28.4491 54.1018 28.09 54.6157 27.6254C55.1296 27.1608 55.538 26.6081 55.8407 25.9675C56.1434 25.3268 56.2948 24.6123 56.2948 23.8238C56.2948 23.0776 56.1997 22.4616 56.0096 21.9758C55.8196 21.49 55.5837 21.0852 55.3021 20.7614C55.0205 20.4376 54.7143 20.1736 54.3834 19.9694C54.0525 19.7652 53.7463 19.5646 53.4647 19.3675C53.1831 19.1704 52.9472 18.9592 52.7572 18.7339C52.5671 18.5086 52.472 18.227 52.472 17.8891C52.472 17.6779 52.5284 17.4808 52.641 17.2977C52.7536 17.1147 52.8909 16.9563 53.0528 16.8225C53.2148 16.6888 53.3767 16.5796 53.5386 16.4952C53.7005 16.4107 53.8378 16.3684 53.9504 16.3684C54.1898 16.3684 54.3834 16.4635 54.5312 16.6536C54.6791 16.8436 54.753 17.1499 54.753 17.5723C54.753 17.6849 54.7424 17.7976 54.7213 17.9102C54.7002 18.0228 54.6756 18.1355 54.6474 18.2481L57.7098 17.3611C57.738 17.1358 57.7696 16.9246 57.8048 16.7275C57.84 16.5304 57.8576 16.3332 57.8576 16.1361C57.8576 15.6715 57.7837 15.2843 57.6359 14.9745C57.488 14.6648 57.2909 14.4078 57.0445 14.2036C56.7981 13.9995 56.506 13.8516 56.168 13.7601C55.8301 13.6686 55.4711 13.6228 55.0909 13.6228C54.401 13.6228 53.6688 13.7566 52.8944 14.0241C52.12 14.2916 51.4055 14.6542 50.7508 15.1118C50.096 15.5694 49.5504 16.115 49.114 16.7486C48.6775 17.3822 48.4592 18.0651 48.4592 18.7972C48.4592 19.2478 48.5719 19.6561 48.7972 20.0222C49.0224 20.3883 49.2935 20.7192 49.6103 21.0148C49.9271 21.3105 50.2756 21.5921 50.6557 21.8596C51.0359 22.1272 51.3879 22.3912 51.7117 22.6516C52.0356 22.9121 52.3066 23.1867 52.5248 23.4753C52.7431 23.764 52.8522 24.0772 52.8522 24.4152C52.8522 24.6123 52.8064 24.7848 52.7149 24.9326C52.6234 25.0804 52.5002 25.2107 52.3453 25.3233C52.1904 25.436 52.0215 25.5204 51.8384 25.5768C51.6554 25.6331 51.4794 25.6612 51.3104 25.6612C51.1133 25.6612 50.8916 25.6155 50.6452 25.524C50.3988 25.4324 50.1524 25.3163 49.906 25.1755C49.6596 25.0347 49.4378 24.8692 49.2407 24.6792C49.0436 24.4891 48.8957 24.3025 48.7972 24.1195L47.2343 27.1819C47.7552 27.8436 48.2973 28.3259 48.8605 28.6286C49.4237 28.9313 49.9869 29.0827 50.5501 29.0827ZM69.1216 25.6401C68.9527 25.6401 68.7943 25.5944 68.6464 25.5028C68.4986 25.4113 68.3754 25.3022 68.2768 25.1755C68.1783 25.0488 68.1008 24.9009 68.0445 24.732C67.9882 24.563 67.96 24.4011 67.96 24.2462C67.96 23.9083 67.9952 23.507 68.0656 23.0424C68.136 22.5777 68.2522 22.1025 68.4141 21.6168C68.576 21.131 68.7696 20.6523 68.9949 20.1806C69.2202 19.7089 69.4842 19.2865 69.7869 18.9134C70.0896 18.5403 70.4311 18.2411 70.8112 18.0158C71.1914 17.7905 71.6068 17.6779 72.0573 17.6779C72.2826 17.6779 72.4621 17.7377 72.5959 17.8574C72.7296 17.9771 72.8282 18.1214 72.8916 18.2904C72.9549 18.4593 72.9972 18.6424 73.0183 18.8395C73.0394 19.0366 73.05 19.2196 73.05 19.3886C73.05 19.98 72.962 20.6347 72.786 21.3528C72.61 22.0708 72.36 22.7467 72.0362 23.3803C71.7124 24.0139 71.304 24.5489 70.8112 24.9854C70.3184 25.4219 69.7552 25.6401 69.1216 25.6401ZM81.153 28.4702L77.3514 29.0616C77.6752 27.5128 77.985 25.9851 78.2807 24.4785C78.4074 23.8449 78.5341 23.1832 78.6608 22.4932C78.7875 21.8033 78.9108 21.124 79.0304 20.4552C79.1501 19.7864 79.2557 19.1387 79.3472 18.5121C79.4388 17.8856 79.5197 17.3118 79.5901 16.7908C79.2663 16.7486 78.9389 16.7345 78.608 16.7486C78.2772 16.7627 77.9498 16.7204 77.6259 16.6219C77.64 16.3966 77.6471 16.1361 77.6471 15.8404C77.6471 15.5448 77.6541 15.2491 77.6682 14.9534C77.6823 14.6296 77.6963 14.2846 77.7104 13.9185C78.0765 13.9467 78.4426 13.9678 78.8087 13.9819C79.1748 13.996 79.5408 14.003 79.9069 14.003C80.625 14.003 81.3184 13.9854 81.9872 13.9502C82.656 13.915 83.2756 13.8728 83.8458 13.8235C84.416 13.7742 84.9757 13.7144 85.5248 13.644L85.2925 14.7844C85.2221 15.1083 85.1552 15.4392 85.0919 15.7771C85.0285 16.115 84.9687 16.4036 84.9123 16.643C84.6026 16.7275 84.2893 16.7873 83.9725 16.8225C83.6557 16.8577 83.3424 16.9035 83.0327 16.9598C82.9341 17.4385 82.8285 17.97 82.7159 18.5544C82.6032 19.1387 82.4941 19.7441 82.3885 20.3707C82.2829 20.9972 82.1808 21.6344 82.0823 22.282C81.9837 22.9297 81.8852 23.5492 81.7866 24.1406C81.5613 25.5345 81.3501 26.9777 81.153 28.4702Z" fill="#49E484"/>
<path fill-rule="evenodd" clip-rule="evenodd" d="M109.672 28.4277L106.588 29.1458C107.011 27.1183 107.412 25.1541 107.792 23.2533C107.933 22.4367 108.084 21.5919 108.246 20.7189C108.408 19.846 108.56 18.9836 108.7 18.1317C108.841 17.2799 108.968 16.4632 109.081 15.6818C109.193 14.9004 109.278 14.1928 109.334 13.5592C109.517 13.5733 109.672 13.5804 109.799 13.5804H110.242C110.439 13.5804 110.679 13.5768 110.96 13.5698C111.242 13.5628 111.523 13.5522 111.805 13.5381C112.087 13.524 112.389 13.51 112.713 13.4959C112.91 14.4815 113.086 15.4319 113.241 16.3471C113.396 17.1496 113.554 17.9733 113.716 18.8181C113.878 19.6629 114.023 20.381 114.149 20.9724C114.206 20.6908 114.269 20.3634 114.339 19.9903C114.41 19.6172 114.487 19.2264 114.572 18.8181C114.656 18.4098 114.737 17.998 114.815 17.5826C114.892 17.1672 114.973 16.7554 115.057 16.3471C115.255 15.4319 115.459 14.4885 115.67 13.517L118.247 13.2002C117.768 15.3544 117.345 17.396 116.979 19.325C116.81 20.1557 116.645 20.997 116.483 21.8488C116.321 22.7007 116.17 23.5173 116.029 24.2988C115.888 25.0802 115.769 25.8053 115.67 26.4741C115.571 27.1429 115.494 27.7026 115.438 28.1532C115.395 28.1532 115.23 28.1848 114.941 28.2482C114.653 28.3116 114.322 28.3855 113.949 28.47L112.829 28.7234C112.456 28.8079 112.178 28.8853 111.995 28.9557C111.911 27.8293 111.819 26.7592 111.721 25.7455C111.678 25.309 111.633 24.862 111.583 24.4044C111.534 23.9468 111.481 23.5068 111.425 23.0844C111.369 22.662 111.312 22.2677 111.256 21.9016C111.2 21.5356 111.143 21.2188 111.087 20.9512C111.045 21.2188 110.988 21.5285 110.918 21.8805C110.848 22.2325 110.777 22.6056 110.707 22.9999C110.636 23.3941 110.566 23.806 110.496 24.2354C110.425 24.6648 110.348 25.0767 110.263 25.4709C110.08 26.4143 109.883 27.3999 109.672 28.4277ZM86.7285 29.0824L89.981 28.4066L90.4456 26.1256C90.5583 25.492 90.6815 24.8232 90.8152 24.1192C90.949 23.4152 91.0652 22.7957 91.1637 22.2607L93.2124 22.0706C93.1279 22.5916 93.0117 23.2181 92.8639 23.9503C92.716 24.6824 92.5717 25.3864 92.4309 26.0623C92.2901 26.8648 92.1282 27.6885 91.9452 28.5333L95.2399 28.1532C95.5074 26.2805 95.796 24.4501 96.1058 22.662C96.2325 21.9157 96.3733 21.1272 96.5282 20.2965C96.6831 19.4658 96.845 18.6456 97.014 17.836C97.1829 17.0264 97.3554 16.245 97.5314 15.4917C97.7074 14.7384 97.894 14.045 98.0911 13.4114L97.7426 13.4431C97.5103 13.4642 97.2252 13.4888 96.8872 13.517C96.5493 13.5452 96.1832 13.5768 95.789 13.612C95.3948 13.6472 95.0357 13.693 94.7119 13.7493C94.4584 14.749 94.2543 15.717 94.0994 16.6533C93.9445 17.5896 93.7685 18.5576 93.5714 19.5573L91.4805 19.7896C91.6776 18.7759 91.8924 17.734 92.1247 16.6639C92.357 15.5938 92.5928 14.566 92.8322 13.5804L89.4108 13.8127C89.3122 14.4604 89.1996 15.1749 89.0728 15.9564C88.9461 16.7378 88.8124 17.5439 88.6716 18.3746C88.5308 19.2053 88.3829 20.0466 88.228 20.8984C88.0732 21.7503 87.9324 22.5704 87.8056 23.3589C87.4536 25.2316 87.0946 27.1394 86.7285 29.0824ZM100.238 29.4204C100.787 29.4204 101.337 29.3359 101.886 29.1669C102.435 28.998 102.952 28.7304 103.438 28.3644C103.924 27.9983 104.346 27.5336 104.705 26.9704C105.064 26.4072 105.342 25.7244 105.539 24.9218C105.694 24.246 105.853 23.5032 106.015 22.6936C106.177 21.884 106.342 21.0604 106.511 20.2226C106.68 19.3848 106.831 18.5788 106.965 17.8044C107.099 17.03 107.222 16.34 107.335 15.7346C107.447 15.1292 107.539 14.6434 107.609 14.2773L107.715 13.7282L104.505 13.9394C104.279 15.2629 104.047 16.5442 103.808 17.7832C103.709 18.3183 103.607 18.8674 103.501 19.4306C103.396 19.9938 103.29 20.5464 103.185 21.0885C103.079 21.6306 102.973 22.1516 102.868 22.6514C102.762 23.1512 102.667 23.6053 102.583 24.0136C102.54 24.1685 102.495 24.3832 102.445 24.6578C102.396 24.9324 102.319 25.2034 102.213 25.4709C102.107 25.7384 101.977 25.9672 101.822 26.1573C101.667 26.3474 101.47 26.4424 101.231 26.4424C101.062 26.4424 100.921 26.3685 100.809 26.2207C100.696 26.0728 100.64 25.8863 100.64 25.661C100.64 25.3794 100.671 25.0661 100.735 24.7212C100.798 24.3762 100.854 24.0911 100.904 23.8658C100.953 23.6405 101.016 23.3484 101.094 22.9893C101.171 22.6303 101.263 22.2044 101.368 21.7116C101.474 21.2188 101.586 20.6767 101.706 20.0853C101.826 19.494 101.949 18.9026 102.076 18.3112C102.357 16.9314 102.681 15.3896 103.047 13.686C102.625 13.7282 102.195 13.7704 101.759 13.8127C101.407 13.8408 101.027 13.876 100.618 13.9183C100.21 13.9605 99.8581 13.9957 99.5624 14.0239C99.5343 14.1365 99.4709 14.4357 99.3724 14.9215C99.2738 15.4072 99.1576 16.0162 99.0239 16.7484C98.8901 17.4805 98.7388 18.2936 98.5698 19.1877C98.4008 20.0818 98.246 20.9724 98.1052 21.8594C97.9644 22.7464 97.8306 23.5983 97.7039 24.4149C97.5772 25.2316 97.4856 25.9285 97.4293 26.5058C97.4152 26.5621 97.4082 26.6184 97.4082 26.6748V26.8437C97.4082 27.2802 97.4962 27.6604 97.6722 27.9842C97.8482 28.308 98.07 28.5756 98.3375 28.7868C98.605 28.998 98.9077 29.1564 99.2456 29.262C99.5836 29.3676 99.9143 29.4204 100.238 29.4204ZM118.81 29.0613L122.611 28.47C122.809 26.9775 123.02 25.5343 123.245 24.1404C123.344 23.549 123.442 22.9295 123.541 22.2818C123.639 21.6341 123.741 20.997 123.847 20.3704C123.953 19.7439 124.062 19.1384 124.174 18.5541C124.287 17.9698 124.393 17.4383 124.491 16.9596C124.801 16.9032 125.114 16.8575 125.431 16.8223C125.748 16.7871 126.061 16.7272 126.371 16.6428C126.427 16.4034 126.487 16.1148 126.55 15.7768C126.614 15.4389 126.681 15.108 126.751 14.7842L126.983 13.6437C126.434 13.7141 125.874 13.774 125.304 13.8232C124.734 13.8725 124.114 13.9148 123.446 13.95C122.777 13.9852 122.083 14.0028 121.365 14.0028C120.999 14.0028 120.633 13.9957 120.267 13.9816C119.901 13.9676 119.535 13.9464 119.169 13.9183C119.155 14.2844 119.141 14.6293 119.127 14.9532C119.113 15.2488 119.105 15.5445 119.105 15.8402C119.105 16.1359 119.098 16.3964 119.084 16.6216C119.408 16.7202 119.736 16.7624 120.066 16.7484C120.397 16.7343 120.725 16.7484 121.049 16.7906C120.978 17.3116 120.897 17.8853 120.806 18.5119C120.714 19.1384 120.609 19.7861 120.489 20.4549C120.369 21.1237 120.246 21.8031 120.119 22.493C119.993 23.1829 119.866 23.8447 119.739 24.4783C119.443 25.9848 119.134 27.5125 118.81 29.0613ZM132.425 28.0053L125.603 29.0613L128.37 14.045L135.044 13.4748C134.945 13.7845 134.861 14.1013 134.791 14.4252C134.72 14.6927 134.653 14.9708 134.59 15.2594C134.527 15.548 134.474 15.805 134.432 16.0303C134.291 16.0444 134.09 16.0549 133.83 16.062C133.569 16.069 133.291 16.076 132.995 16.0831C132.7 16.0901 132.401 16.0936 132.098 16.0936H131.306L130.567 19.8741C131.003 19.846 131.411 19.8248 131.792 19.8108C132.101 19.7967 132.418 19.7896 132.742 19.7896C133.066 19.7896 133.305 19.7826 133.46 19.7685C133.404 20.1628 133.351 20.55 133.302 20.9301C133.252 21.3103 133.193 21.6975 133.122 22.0917C132.981 22.1058 132.753 22.1164 132.436 22.1234C132.119 22.1304 131.799 22.141 131.475 22.1551C131.109 22.1692 130.707 22.1832 130.271 22.1973L129.553 26.0834L132.636 25.5976L132.425 28.0053ZM133.601 29.0613L137.022 28.1743C137.149 27.4984 137.276 26.8296 137.402 26.1679C137.501 25.6047 137.61 25.0204 137.73 24.4149C137.849 23.8095 137.952 23.2815 138.036 22.8309L138.311 22.7464C138.325 22.9013 138.36 23.102 138.416 23.3484C138.473 23.5948 138.543 23.8728 138.627 24.1826C138.712 24.4924 138.803 24.8197 138.902 25.1647C139.001 25.5096 139.099 25.844 139.198 26.1679C139.423 26.9564 139.676 27.8012 139.958 28.7023L143.232 27.5618C142.936 26.8578 142.647 26.1538 142.366 25.4498C142.112 24.8444 141.841 24.2072 141.553 23.5384C141.264 22.8696 140.993 22.2536 140.739 21.6904C141.232 21.437 141.693 21.1096 142.123 20.7084C142.552 20.3071 142.932 19.8636 143.263 19.3778C143.594 18.892 143.858 18.3781 144.055 17.836C144.252 17.294 144.351 16.7413 144.351 16.1781C144.351 15.798 144.309 15.453 144.224 15.1432C144.14 14.8335 143.995 14.5624 143.791 14.3301C143.587 14.0978 143.305 13.9183 142.946 13.7916C142.587 13.6648 142.133 13.6015 141.584 13.6015C140.669 13.6015 139.747 13.6613 138.817 13.781C137.888 13.9007 137.022 14.0872 136.22 14.3407C136.149 14.9602 136.054 15.6466 135.935 16.3999C135.815 17.1532 135.688 17.9346 135.554 18.7442C135.421 19.5538 135.276 20.3704 135.121 21.1941C134.967 22.0178 134.826 22.8098 134.699 23.5701C134.347 25.3583 133.981 27.1887 133.601 29.0613ZM139.24 16.5372L138.564 19.8952C138.832 19.8671 139.159 19.7544 139.546 19.5573C139.933 19.3602 140.303 19.1244 140.655 18.8498C141.007 18.5752 141.31 18.2901 141.563 17.9944C141.817 17.6988 141.943 17.4383 141.943 17.213C141.943 17.0581 141.894 16.9349 141.795 16.8434C141.697 16.7519 141.56 16.6815 141.384 16.6322C141.208 16.5829 141.014 16.5512 140.803 16.5372C140.592 16.5231 140.373 16.516 140.148 16.516C139.993 16.516 139.835 16.5196 139.673 16.5266C139.511 16.5336 139.367 16.5372 139.24 16.5372Z" fill="white"/>
</g>
<defs>
<clipPath id="clip0_4_332">
<rect width="144" height="44" fill="white" transform="translate(0.499939)"/>
</clipPath>
</defs>
</svg>
