<svg width="172" height="24" viewBox="0 0 172 24" fill="none" xmlns="http://www.w3.org/2000/svg">
<g style="mix-blend-mode:luminosity" clip-path="url(#clip0_4_308)">
<mask id="mask0_4_308" style="mask-type:luminance" maskUnits="userSpaceOnUse" x="0" y="0" width="172" height="24">
<path d="M171.318 0L0.499969 0L0.499969 24L171.318 24V0Z" fill="white"/>
</mask>
<g mask="url(#mask0_4_308)">
<path fill-rule="evenodd" clip-rule="evenodd" d="M36.5057 0L0.499969 0L0.499969 15.6527C0.499969 20.2648 4.23805 24.0028 8.85015 24.0028H44.8559V8.35018C44.8559 3.73808 41.1178 0 36.5057 0ZM40.5655 8.93096C40.5655 6.33737 38.4616 4.23345 35.868 4.23345L30.1285 4.23345V9.84769H33.5505V19.7637H40.5655V8.93096ZM4.79036 4.2363V15.069C4.79036 17.6626 6.89428 19.7665 9.48787 19.7665H11.8053V11.2712L20.6765 19.7665H27.794V4.2363H20.779V12.0854L12.6993 4.2363H4.79036Z" fill="#FF230A"/>
<path d="M63.1619 20.0369C54.1654 20.0369 52.7676 15.0063 52.7676 12.2504V11.644C52.7676 8.82552 53.9775 3.96289 63.1619 3.96289H64.0188C73.0153 3.96289 74.4131 8.26467 74.4131 10.0782V10.3088H69.2573C69.132 9.89029 68.5057 7.7209 63.5804 7.7209C58.9256 7.7209 57.8608 9.80773 57.8608 11.7494V11.9999C57.8608 13.8362 59.0936 16.259 63.6231 16.259C68.6537 16.259 69.1548 13.859 69.28 13.5031H74.4359V13.7337C74.4359 15.6953 72.89 20.0369 64.0188 20.0369H63.1619Z" fill="white"/>
<path d="M89.878 16.9281H80.4631L79.0652 19.7666H74.1172L81.9663 4.23633H88.2695L96.577 19.7666H91.3385L89.878 16.9281ZM85.078 7.59861L82.1969 13.4207H88.0845L85.078 7.59861Z" fill="white"/>
<path d="M105.676 20.037C97.5362 20.037 96.5967 16.5295 96.5967 14.4854V14.2548H101.67C101.733 15.1943 102.276 16.7174 106.282 16.7174H106.575C110.666 16.7174 111.128 15.9032 111.128 15.069C111.128 14.1722 110.646 13.6085 107.056 13.5032L104.383 13.4406C98.581 13.2754 96.8074 11.311 96.8074 8.89109V8.70319C96.8074 6.38575 98.1853 3.96582 105.263 3.96582H106.703C114.051 3.96582 115.72 6.53379 115.72 8.87116V9.07899H110.669C110.564 8.49536 110.251 7.22276 106.182 7.22276H105.849C102.091 7.22276 101.821 7.88895 101.821 8.55799C101.821 9.22703 102.239 9.83059 105.411 9.89322L108.019 9.93593C113.864 10.0413 116.221 11.4591 116.221 14.548V14.8413C116.221 17.4092 114.928 20.0398 107.122 20.0398H105.681L105.676 20.037Z" fill="white"/>
<path d="M123.249 4.23633H118.387V19.7666H123.249V4.23633Z" fill="white"/>
<path d="M131.578 4.23633L141.494 14.0043V4.23633H146.294V19.7666H141.494L130.951 9.47476V19.7666H126.151V4.23633H131.578Z" fill="white"/>
<path d="M160.4 3.96289C170.168 3.96289 171.318 8.86823 171.318 11.644V12.2704C171.318 15.0035 170.191 20.0341 160.4 20.0341H159.503C149.673 20.0341 148.565 15.0035 148.565 12.2704V11.644C148.565 8.86823 149.673 3.96289 159.503 3.96289H160.4ZM166.225 11.7921C166.225 10.0184 165.203 7.7209 159.942 7.7209C154.681 7.7209 153.659 10.0156 153.659 11.7921V12.0426C153.659 13.8163 154.681 16.259 159.942 16.259C165.203 16.259 166.225 13.8789 166.225 12.0853V11.7921Z" fill="white"/>
</g>
</g>
<defs>
<clipPath id="clip0_4_308">
<rect width="171" height="24" fill="white" transform="translate(0.499969)"/>
</clipPath>
</defs>
</svg>
