<?xml version="1.0" encoding="UTF-8"?><svg id="Graphic_Elements" xmlns="http://www.w3.org/2000/svg" viewBox="0 0 60 60"><defs><style>.cls-1{fill:#fff;}.cls-1,.cls-2{stroke-width:0px;}.cls-2{fill:#fc5b39;}</style></defs><circle class="cls-2" cx="30" cy="30" r="29.5"/><path class="cls-1" d="m44.96,41.35H15.04c-2.53,0-4.6-2.06-4.6-4.6V15.17c0-2.53,2.06-4.6,4.6-4.6h29.92c2.53,0,4.6,2.06,4.6,4.6v21.58c0,2.53-2.06,4.6-4.6,4.6ZM15.04,11.99c-1.76,0-3.19,1.43-3.19,3.19v21.58c0,1.76,1.43,3.19,3.19,3.19h29.92c1.76,0,3.19-1.43,3.19-3.19V15.17c0-1.76-1.43-3.19-3.19-3.19H15.04Z"/><path class="cls-1" d="m36.06,49.42h-12.12c-.2,0-.39-.09-.53-.23s-.2-.35-.18-.55l.89-8.07c.04-.36.34-.63.7-.63h10.34c.36,0,.66.27.7.63l.89,8.07c.02.2-.04.4-.18.55-.13.15-.32.23-.53.23Zm-11.33-1.41h10.54l-.73-6.66h-9.08l-.73,6.66Z"/><path class="cls-1" d="m43.34,49.42h-26.68c-.39,0-.7-.32-.7-.7s.32-.7.7-.7h26.68c.39,0,.7.32.7.7s-.32.7-.7.7Z"/><path class="cls-1" d="m48.85,36.36H11.15c-.39,0-.7-.32-.7-.7V15.83c0-.39.32-.7.7-.7h37.7c.39,0,.71.32.71.7v19.82c0,.39-.32.7-.71.7Zm-37-1.41h36.29v-18.41H11.85v18.41Z"/><path class="cls-1" d="m41.99,29.86h-22.62c-.33,0-.6-.27-.6-.6v-8.98c0-.33.27-.6.6-.6h22.62c.33,0,.6.27.6.6v8.98c0,.33-.27.6-.6.6Zm-22.02-1.21h21.41v-7.77h-21.41v7.77Z"/><path class="cls-1" d="m39.57,32.44h-22.62c-.33,0-.6-.27-.6-.6v-8.98c0-.33.27-.6.6-.6s.6.27.6.6v8.37h22.02c.33,0,.6.27.6.6s-.27.6-.6.6Z"/></svg>