<?xml version="1.0" encoding="UTF-8"?><svg id="Graphic_Elements" xmlns="http://www.w3.org/2000/svg" viewBox="0 0 60 60"><defs><style>.cls-1{fill:#fff;}.cls-1,.cls-2{stroke-width:0px;}.cls-2{fill:#303030;}</style></defs><circle class="cls-2" cx="30" cy="30" r="29.5"/><path class="cls-1" d="m28.61,31.85c-.66,0-1.31-.24-1.82-.7-.32-.29-.58-.64-.77-1.04l-2.68-5.74c-.76-1.62-.06-3.57,1.57-4.33,3.33-1.46,8.59-.45,12.08.22l.13.03c1.36.26,2.77.07,4.09-.55l.64-.3c.35-.16.76-.01.92.33.16.34.01.75-.33.92l-.64.3c-1.58.74-3.29.97-4.93.65l-.13-.03c-3.31-.64-8.32-1.6-11.25-.32-.92.43-1.33,1.55-.89,2.49l2.68,5.73c.11.23.26.43.44.6.58.52,1.22.33,1.46.23.45-.19.94-.66.97-1.41.03-1.03-.31-2.27-1.01-3.69-.17-.34-.03-.75.31-.92.34-.17.75-.03.92.31.8,1.63,1.19,3.09,1.15,4.35-.03,1.15-.74,2.18-1.8,2.63-.36.15-.74.23-1.11.23Z"/><path class="cls-1" d="m41.85,34.49c-.11,0-.23-.03-.33-.09-.33-.18-.45-.6-.27-.94.85-1.53,2.77-3.02,4.22-3.7.34-.16.75-.01.92.33.16.34.01.75-.33.92-1.22.57-2.9,1.86-3.6,3.12-.13.23-.36.35-.6.35Z"/><path class="cls-1" d="m48.2,32.9c-1.32,0-2.56-.82-3.03-2.14l-3.93-11.14c-.59-1.67.29-3.5,1.96-4.09l.18-.06c.82-.29,1.7-.24,2.47.14.78.38,1.36,1.04,1.63,1.86l3.75,11.2c.55,1.65-.33,3.46-1.98,4.04-.35.12-.71.18-1.06.18Zm-3.75-16.24c-.2,0-.41.03-.61.1l-.18.06c-.95.34-1.45,1.38-1.12,2.33l3.93,11.14c.34.95,1.38,1.45,2.33,1.12.94-.33,1.44-1.36,1.13-2.31l-3.75-11.2c-.16-.47-.49-.85-.93-1.06-.25-.12-.53-.19-.8-.19Z"/><path class="cls-1" d="m12.1,35.56c-.43,0-.87-.09-1.27-.26l-.3-.13c-1.54-.66-2.31-2.43-1.75-4.01l3.67-10.41c.29-.84.93-1.52,1.74-1.87.81-.35,1.74-.36,2.56,0l.3.13c1.54.67,2.31,2.43,1.75,4.01l-3.67,10.41c-.29.84-.93,1.52-1.74,1.87-.41.18-.85.27-1.28.27Zm3.37-15.57c-.25,0-.5.05-.73.15-.47.21-.82.58-.99,1.07l-3.67,10.41c-.32.9.12,1.91,1,2.29l.3.13c.47.2.99.2,1.46,0,.47-.21.82-.58.99-1.07l3.67-10.41c.32-.9-.12-1.91-1-2.29l-.3-.13c-.23-.1-.48-.15-.73-.15Z"/><path class="cls-1" d="m35.56,43.63c-.42,0-.85-.09-1.26-.29l-2.61-1.25c-.34-.16-.49-.58-.32-.92.16-.34.58-.49.92-.32l2.61,1.25c.76.37,1.68.04,2.05-.72.34-.71.07-1.59-.62-1.99-.26-.15-.39-.44-.33-.73s.29-.51.58-.55h.07c.13-.03.27,0,.39.05.37.18.79.2,1.18.06.39-.14.7-.42.88-.79.32-.67.12-1.47-.48-1.91-.29-.21-.37-.61-.19-.91l.03-.06c.18-.3.55-.41.87-.27.71.31,1.55-.03,1.91-.79.31-.65.16-1.42-.36-1.84-.1-.08-.18-.13-.25-.16l-6.75-3.24c-.74-.35-2.07.11-2.42.84-.16.34-.58.49-.92.32-.34-.16-.49-.58-.32-.92.68-1.42,2.83-2.17,4.26-1.48l6.75,3.23c.17.08.34.19.5.32.02.01.03.03.05.04,1,.83,1.3,2.26.71,3.48-.42.88-1.19,1.45-2.05,1.63.28.73.27,1.56-.09,2.31-.34.7-.93,1.23-1.66,1.49-.13.05-.27.08-.41.11.29.73.29,1.58-.07,2.33-.5,1.05-1.55,1.66-2.64,1.66Z"/><path class="cls-1" d="m32,42.16c-.11,0-.23-.03-.33-.09l-4-2.21c-.33-.18-.45-.6-.27-.94.18-.33.6-.45.94-.27l4,2.21c.33.18.45.6.27.94-.13.23-.36.36-.6.36Z"/><path class="cls-1" d="m36.67,39.48c-.11,0-.22-.02-.32-.08l-6.4-3.32c-.34-.18-.47-.59-.29-.93.17-.34.59-.47.93-.29l6.4,3.32c.34.18.47.59.29.93-.12.24-.36.37-.61.37Z"/><path class="cls-1" d="m39.05,35.61c-.11,0-.22-.03-.32-.08l-5.57-2.91c-.34-.18-.47-.59-.29-.93.18-.34.59-.47.93-.29l5.57,2.91c.34.18.47.59.29.93-.12.24-.36.37-.61.37Z"/><path class="cls-1" d="m31.28,44.72c-.19,0-.4-.03-.63-.08-2.05-.53-9.37-4.03-13.63-8.1-.41-.39-.73-.78-1.04-1.15-.54-.65-1.01-1.21-1.8-1.58-.34-.16-.49-.58-.32-.92.16-.34.58-.49.92-.32,1.06.51,1.67,1.24,2.26,1.94.29.34.58.7.94,1.04,4.13,3.95,11.3,7.31,13.03,7.76.38.1.58,0,.7-.12.23-.19.24-.46.22-.59-.03-.28-.2-.54-.45-.68l-2.83-1.51c-.34-.18-.46-.6-.28-.93.18-.34.6-.46.93-.28l2.83,1.51c.65.35,1.09,1,1.17,1.74.08.7-.18,1.35-.7,1.79-.28.24-.71.49-1.31.49Z"/><path class="cls-1" d="m22.31,24.5c-1.34,0-2.72-.27-3.74-.75l-.72-.33c-.35-.16-.5-.57-.34-.91.16-.35.57-.5.91-.34l.73.33c1.19.57,3.05.77,4.53.51.37-.07.73.18.8.55.07.37-.18.73-.55.8-.52.09-1.07.14-1.62.14Z"/><path class="cls-1" d="m16.96,36.16c-.08,0-.16-.01-.24-.04-.36-.13-.54-.53-.41-.88l2.84-7.77c.13-.36.53-.54.88-.41.36.13.54.53.41.88l-2.84,7.77c-.1.28-.37.45-.65.45Z"/><path class="cls-1" d="m40.8,27.63c-.28,0-.55-.17-.65-.45l-2.12-5.86c-.13-.36.06-.75.41-.88.36-.13.75.06.88.41l2.12,5.86c.13.36-.06.75-.41.88-.08.03-.16.04-.23.04Z"/></svg>