<?xml version="1.0" encoding="UTF-8"?><svg id="Graphic_Elements" xmlns="http://www.w3.org/2000/svg" viewBox="0 0 60 60"><defs><style>.cls-1{fill:#fff;}.cls-1,.cls-2{stroke-width:0px;}.cls-2{fill:#fc5b39;}</style></defs><circle class="cls-2" cx="30" cy="30" r="29.5"/><path class="cls-1" d="m46.3,43.72H13.7c-1.38,0-2.5-1.12-2.5-2.5v-22.4c0-1.38,1.12-2.5,2.5-2.5h4.39c.38,0,.68.31.68.68s-.3.68-.68.68h-4.39c-.63,0-1.14.51-1.14,1.14v22.4c0,.63.51,1.14,1.14,1.14h32.6c.63,0,1.14-.51,1.14-1.14v-22.4c0-.63-.51-1.14-1.14-1.14h-1.8c-.38,0-.68-.31-.68-.68s.3-.68.68-.68h1.8c1.38,0,2.5,1.12,2.5,2.5v22.4c0,1.38-1.12,2.5-2.5,2.5Z"/><path class="cls-1" d="m44.48,49.05H15.52c-2.38,0-4.32-1.94-4.32-4.32v-.79c0-.88.71-1.59,1.59-1.59h34.41c.88,0,1.59.71,1.59,1.59v.79c0,2.38-1.94,4.32-4.32,4.32Zm-31.69-5.33c-.13,0-.23.1-.23.23v.79c0,1.63,1.32,2.95,2.95,2.95h28.96c1.63,0,2.95-1.32,2.95-2.95v-.79c0-.13-.1-.23-.23-.23H12.79Z"/><path class="cls-1" d="m48.12,39.52H11.88c-.38,0-.68-.3-.68-.68s.3-.68.68-.68h36.23c.38,0,.68.31.68.68s-.31.68-.68.68Z"/><path class="cls-1" d="m48.12,22.02h-3.62c-.38,0-.68-.3-.68-.68s.3-.68.68-.68h3.62c.38,0,.68.3.68.68s-.31.68-.68.68Z"/><path class="cls-1" d="m18.09,22.02h-6.21c-.38,0-.68-.3-.68-.68s.3-.68.68-.68h6.21c.38,0,.68.3.68.68s-.3.68-.68.68Z"/><path class="cls-1" d="m36.46,46.16h-12.92c-.85,0-1.62-.43-2.07-1.15l-1.01-1.61c-.2-.32-.1-.74.22-.94.32-.2.74-.1.94.22l1.01,1.61c.2.32.54.51.92.51h12.92c.38,0,.72-.19.92-.51l1.01-1.61c.2-.32.62-.42.94-.22.32.2.42.62.22.94l-1.01,1.61c-.45.72-1.22,1.15-2.07,1.15Z"/><path class="cls-1" d="m39.46,36.39h-18.91c-.38,0-.68-.3-.68-.68V14.2c0-.38.3-.68.68-.68h18.91c.38,0,.68.3.68.68v21.5c0,.38-.3.68-.68.68Zm-18.23-1.36h17.55V14.88h-17.55v20.14Z"/><path class="cls-1" d="m41.94,33.81h-2.48c-.38,0-.68-.3-.68-.68s.3-.68.68-.68h1.8V12.31h-17.55v1.89c0,.38-.31.68-.68.68s-.68-.3-.68-.68v-2.57c0-.38.3-.68.68-.68h18.91c.38,0,.68.3.68.68v21.5c0,.38-.3.68-.68.68Z"/><path class="cls-1" d="m35.05,18.71h-10.11c-.38,0-.68-.3-.68-.68s.3-.68.68-.68h10.11c.38,0,.68.3.68.68s-.3.68-.68.68Z"/><path class="cls-1" d="m36.15,21.66h-12.29c-.38,0-.68-.31-.68-.68s.31-.68.68-.68h12.29c.38,0,.68.31.68.68s-.3.68-.68.68Z"/><path class="cls-1" d="m36.15,24.95h-12.29c-.38,0-.68-.3-.68-.68s.31-.68.68-.68h12.29c.38,0,.68.3.68.68s-.3.68-.68.68Z"/><path class="cls-1" d="m36.15,28.25h-12.29c-.38,0-.68-.3-.68-.68s.31-.68.68-.68h12.29c.38,0,.68.3.68.68s-.3.68-.68.68Z"/><path class="cls-1" d="m36.15,31.54h-12.29c-.38,0-.68-.3-.68-.68s.31-.68.68-.68h12.29c.38,0,.68.31.68.68s-.3.68-.68.68Z"/></svg>