<?xml version="1.0" encoding="UTF-8"?><svg id="Graphic_Elements" xmlns="http://www.w3.org/2000/svg" viewBox="0 0 60 60"><defs><style>.cls-1{fill:#fff;}.cls-1,.cls-2{stroke-width:0px;}.cls-2{fill:#303030;}</style></defs><circle class="cls-2" cx="30" cy="30" r="29.5"/><path class="cls-1" d="m46.56,21.28c.72,0,1.43-.28,1.97-.83.52-.53.8-1.22.79-1.96,0-.74-.3-1.43-.83-1.95l-2.63-2.58c-.53-.52-1.26-.79-1.96-.79-.74,0-1.43.3-1.95.83-.52.53-.8,1.22-.79,1.96,0,.42.11.82.29,1.18l-1.58,1.61c-2.12-1.53-4.53-2.59-7.07-3.1v-2.24h.92c1.52,0,2.76-1.24,2.76-2.76s-1.24-2.76-2.76-2.76h-9.22c-1.52,0-2.77,1.24-2.77,2.76s1.24,2.76,2.77,2.76h.92v2.25c-8.59,1.74-14.75,9.19-14.75,18.02,0,5.07,2.06,9.66,5.38,13,0,.01.01.02.02.03s.02.01.03.02c3.34,3.32,7.93,5.38,13,5.38s9.66-2.06,13-5.38c.01,0,.02-.01.03-.02s.01-.02.02-.03c3.32-3.34,5.38-7.93,5.38-13,0-3.99-1.33-7.87-3.73-11.06l1.58-1.61c.37.17.76.26,1.16.26Zm-3.29-5.99c.17-.18.4-.27.65-.28.28,0,.48.09.65.26l2.63,2.58c.18.17.27.4.28.65s-.09.48-.26.65c-.36.36-.94.37-1.3.01l-2.63-2.58c-.18-.17-.27-.4-.28-.65,0-.25.09-.48.26-.65Zm-.62,3.27l1.32,1.29-1.32,1.35c-.11-.12-.24-.23-.35-.35-.01-.01-.02-.02-.03-.03-.04-.06-.06-.12-.11-.17-.03-.03-.07-.05-.11-.07-.12-.12-.25-.22-.37-.33-.12-.11-.23-.23-.35-.34l1.32-1.35Zm.29,16.05h2.72c-.21,3.88-1.76,7.4-4.2,10.12l-1.92-1.92c-.36-.36-.94-.36-1.3,0-.36.36-.36.94,0,1.3l1.92,1.92c-2.72,2.44-6.24,3.98-10.12,4.2v-2.72c0-.51-.41-.92-.92-.92s-.92.41-.92.92v2.72c-3.88-.21-7.4-1.76-10.12-4.2l1.92-1.92c.36-.36.36-.94,0-1.3-.36-.36-.94-.36-1.3,0l-1.92,1.92c-2.44-2.72-3.98-6.24-4.2-10.12h2.72c.51,0,.92-.41.92-.92s-.41-.92-.92-.92h-2.72c.21-3.88,1.74-7.41,4.18-10.14l1.94,1.94c.18.18.42.27.65.27s.47-.09.65-.27c.36-.36.36-.94,0-1.3l-1.94-1.94c2.3-2.05,5.18-3.48,8.44-4,.61-.1,1.16-.15,1.7-.19v2.72c0,.51.41.92.92.92s.92-.41.92-.92v-2.72c.54.04,1.09.09,1.7.19,2.78.44,5.43,1.61,7.66,3.37.26.2.5.44.75.66l-1.9,1.9c-.36.36-.36.94,0,1.3.18.18.42.27.65.27s.47-.09.65-.27l1.91-1.91c.15.16.31.32.45.49,2.26,2.73,3.57,6.11,3.77,9.62h-2.73c-.51,0-.92.41-.92.92s.41.92.92.92ZM23.58,10.65c0-.51.41-.92.92-.92h9.22c.51,0,.92.41.92.92s-.41.92-.92.92h-9.22c-.51,0-.92-.41-.92-.92Zm7.37,2.76v1.95c-.08,0-.16-.01-.24-.02-.14-.01-.28-.02-.41-.03-.36-.03-.71-.04-1.05-.05-.1,0-.19,0-.29,0-.34,0-.69.02-1.05.05-.13.01-.27.02-.41.03-.08,0-.16.01-.24.02v-1.95h3.69Z"/><path class="cls-1" d="m31.16,30.62s0,0,0,0c-.72-.48-1.6-.67-2.45-.58l-6.45-4.48c-.36-.25-.86-.21-1.17.1-.32.31-.37.8-.12,1.17l4.46,6.67c0,.06-.01.13-.01.19,0,2.03,1.65,3.69,3.69,3.69s3.69-1.65,3.69-3.69c0-1.23-.61-2.38-1.64-3.06Zm-4.93.75l-1.02-1.52,1.49,1.03s0,0,0,0c-.03.03-.06.06-.09.08-.07.07-.14.13-.21.2,0,0-.01.02-.02.02-.02.02-.03.04-.05.05-.04.04-.07.08-.1.12Zm2.87,4.15c-1.02,0-1.84-.83-1.84-1.84,0-.12.02-.24.04-.35.02-.12.06-.24.11-.36.02-.04.03-.08.05-.12.08-.15.17-.29.28-.41.02-.02.04-.04.06-.06.1-.1.2-.18.32-.26.08-.05.16-.08.24-.11.08-.04.17-.08.26-.1.15-.04.31-.07.48-.07.37,0,.72.11,1.02.31.51.34.82.92.82,1.53,0,1.02-.83,1.84-1.84,1.84Z"/></svg>