<?xml version="1.0" encoding="UTF-8"?><svg id="Graphic_Elements" xmlns="http://www.w3.org/2000/svg" viewBox="0 0 60 60"><defs><style>.cls-1{fill:#fff;}.cls-1,.cls-2{stroke-width:0px;}.cls-2{fill:#fc5b39;}</style></defs><circle class="cls-2" cx="30" cy="30" r="29.5"/><path class="cls-1" d="m47.27,44.58H12.54c-2.05,0-3.73-1.67-3.73-3.73v-19.19c0-2.05,1.67-3.73,3.73-3.73h6.65c.38,0,.69.31.69.69s-.31.69-.69.69h-6.65c-1.29,0-2.35,1.05-2.35,2.35v19.19c0,1.29,1.05,2.35,2.35,2.35h34.73c1.29,0,2.35-1.05,2.35-2.35v-19.19c0-1.3-1.05-2.35-2.35-2.35h-6.25c-.38,0-.69-.31-.69-.69s.31-.69.69-.69h6.25c2.06,0,3.73,1.67,3.73,3.73v19.19c0,2.05-1.67,3.73-3.73,3.73Z"/><path class="cls-1" d="m50.31,30.56h-30.47c-.38,0-.69-.31-.69-.69s.31-.69.69-.69h29.79v-4.7h-10.92c-.38,0-.69-.31-.69-.69s.31-.69.69-.69h11.6c.38,0,.69.31.69.69v6.08c0,.38-.31.69-.69.69Z"/><path class="cls-1" d="m14.78,30.56h-5.27c-.38,0-.69-.31-.69-.69v-6.08c0-.38.31-.69.69-.69h12.08c.38,0,.69.31.69.69s-.31.69-.69.69h-11.39v4.7h4.58c.38,0,.69.31.69.69s-.31.69-.69.69Z"/><path class="cls-1" d="m45.81,40.07h-7.75c-.72,0-1.3-.58-1.3-1.3v-3.42c0-.72.58-1.3,1.3-1.3h7.75c.72,0,1.3.58,1.3,1.3v3.42c0,.72-.58,1.3-1.3,1.3Zm-7.66-1.38h7.58v-3.25h-7.58v3.25Z"/><path class="cls-1" d="m34.57,40.07h-12c-.38,0-.69-.31-.69-.69s.31-.69.69-.69h12c.38,0,.69.31.69.69s-.31.69-.69.69Z"/><path class="cls-1" d="m34.57,37.04h-8.43c-.38,0-.69-.31-.69-.69s.31-.69.69-.69h8.43c.38,0,.69.31.69.69s-.31.69-.69.69Z"/><path class="cls-1" d="m29.91,25.58c-4.72,0-8.56-3.84-8.56-8.56s3.84-8.56,8.56-8.56,8.56,3.84,8.56,8.56-3.84,8.56-8.56,8.56Zm0-15.75c-3.96,0-7.19,3.22-7.19,7.19s3.22,7.19,7.19,7.19,7.19-3.22,7.19-7.19-3.22-7.19-7.19-7.19Z"/><path class="cls-1" d="m29.91,20.18c-.15,0-.3-.05-.43-.15l-4.35-3.48c-.3-.24-.35-.67-.11-.97.24-.3.67-.34.97-.11l3.85,3.08,7.44-8.05c.26-.28.69-.3.97-.04.28.26.3.69.04.97l-7.87,8.52c-.14.15-.32.22-.51.22Z"/></svg>