<?xml version="1.0" encoding="UTF-8"?><svg id="Graphic_Elements" xmlns="http://www.w3.org/2000/svg" viewBox="0 0 60 60"><defs><style>.cls-1{fill:none;stroke-width:1.63px;}.cls-1,.cls-2{stroke:#fff;stroke-miterlimit:10;}.cls-2{fill:#fff;stroke-width:.41px;}.cls-3{fill:#fc5b39;stroke-width:0px;}</style></defs><circle class="cls-3" cx="30" cy="30" r="29.5"/><path class="cls-2" d="m30.02,51.35h-.02c-11.77,0-21.35-9.58-21.35-21.35,0-5.7,2.22-11.06,6.26-15.09,4.03-4.03,9.39-6.26,15.09-6.26h0c11.77,0,21.35,9.58,21.35,21.35,0,3.2-.69,6.27-2.05,9.14-.14.3-.17.63-.09.95l1.83,6.57c.11.41,0,.84-.31,1.14-.31.29-.75.39-1.15.26l-4.36-1.42c-.45-.15-.94-.04-1.28.29-.61.58-1.16,1.06-1.61,1.43-.25.2-.61.16-.81-.08-.2-.25-.16-.61.08-.81.43-.35.96-.82,1.55-1.37.65-.61,1.58-.82,2.43-.54l4.36,1.42-1.83-6.56c-.16-.58-.11-1.2.15-1.75,1.29-2.71,1.94-5.62,1.94-8.64,0-11.13-9.06-20.19-20.19-20.19-5.39,0-10.46,2.1-14.28,5.92-3.82,3.82-5.92,8.89-5.92,14.27,0,11.13,9.06,20.19,20.19,20.19h.02c2.92,0,4.41-1.54,4.83-2.97.37-1.25-.02-2.46-.99-3.08-.27-.17-.35-.53-.18-.8.17-.27.53-.35.8-.18,1.39.89,1.99,2.65,1.48,4.38-.54,1.84-2.38,3.81-5.94,3.81Z"/><path class="cls-2" d="m29.59,12.48c-.32,0-.58-.26-.58-.58v-2.68c0-.32.26-.58.58-.58s.58.26.58.58v2.68c0,.32-.26.58-.58.58Z"/><path class="cls-2" d="m50.62,29.77h-2.68c-.32,0-.58-.26-.58-.58s.26-.58.58-.58h2.68c.32,0,.58.26.58.58s-.26.58-.58.58Z"/><circle class="cls-2" cx="20.77" cy="14.97" r=".86"/><circle class="cls-2" cx="39.73" cy="14.97" r=".86"/><circle class="cls-2" cx="39.73" cy="45.42" r=".86"/><circle class="cls-2" cx="14.7" cy="20.84" r=".86"/><circle class="cls-2" cx="45.7" cy="20.84" r=".86"/><circle class="cls-2" cx="45.7" cy="37.3" r=".86"/><path class="cls-2" d="m22.96,31.47v-1.17c0-.53.23-.97.68-1.33l2.41-1.96c.41-.32.61-.7.61-1.12v-.42c0-.61-.32-.92-.96-.92h-.62c-.32,0-.56.07-.7.22-.14.14-.22.38-.22.7v.47c0,.15-.07.23-.22.23h-.82c-.14,0-.22-.08-.22-.23v-.5c0-.62.17-1.1.52-1.44.35-.34.84-.51,1.47-.51h.99c.62,0,1.1.17,1.45.51.35.34.52.82.52,1.44v.52c0,.66-.26,1.21-.78,1.63l-2.45,2c-.2.16-.29.35-.29.57v.41h3.31c.15,0,.23.07.23.22v.68c0,.14-.08.22-.23.22h-4.48c-.15,0-.23-.07-.23-.22Z"/><path class="cls-2" d="m32.96,31.69h-.75c-.14,0-.22-.07-.22-.22v-1.34h-3.37c-.25,0-.37-.12-.37-.37v-.4c0-.19.04-.35.11-.5l2.84-5.06c.07-.13.13-.21.19-.25.06-.04.15-.06.27-.06h1.12c.25,0,.37.12.37.37v5.18h.93c.14,0,.22.07.22.22v.64c0,.16-.07.24-.22.24h-.93v1.34c0,.14-.07.22-.2.22Zm-.97-2.65v-4.51l-2.51,4.51h2.51Z"/><path class="cls-2" d="m34.99,36.17h-.73c-.18,0-.24-.08-.18-.23.51-1.31,4.04-10.9,4.68-12.34.07-.15.17-.23.29-.23h.74c.16,0,.22.08.17.24l-4.68,12.33c-.05.15-.15.23-.29.23Z"/><path class="cls-2" d="m41.08,36.17h-.88c-.16,0-.2-.08-.11-.24l2.73-6.81h-3.21c-.14,0-.22-.08-.22-.23v-.7c0-.14.07-.22.22-.22h4.32c.15,0,.23.07.23.22v.79c0,.14-.05.31-.14.54l-2.58,6.45c-.05.14-.17.2-.36.2Z"/><path class="cls-1" d="m28.16,37.88c-.48-.2-1.08-.04-1.49.39,0,0,0,0,0,0-.29.31-.59.65-1.01.78-.33.1-.61,0-.9-.08-.7-.22-1.36-.54-1.97-.9-.75-.45-1.43-1.02-2-1.68-.29-.33-.54-.68-.77-1.05-.22-.36-.37-.76-.59-1.12-.39-.63-.28-1.17.33-1.78.12-.12.25-.24.38-.36.46-.44.56-1.1.27-1.57-1.34-2.07-3.01-4.68-3.99-6.23-.13-.21-.44-.22-.65-.03-.9.85-1.8,1.72-2.6,2.65-1.69,1.96-.96,4.67-.11,6.83,2.56,6.47,9.62,12.29,16.82,11.99,1.01-.06,1.95-.45,2.7-1.18.94-.92,1.82-1.92,2.66-2.93.03-.03.05-.07.08-.1.16-.23.11-.52-.12-.62l-7.02-3Z"/></svg>