<?xml version="1.0" encoding="UTF-8"?><svg id="Graphic_Elements" xmlns="http://www.w3.org/2000/svg" xmlns:xlink="http://www.w3.org/1999/xlink" viewBox="0 0 780.16 222.04"><defs><style>.cls-1{fill:#c8daea;}.cls-1,.cls-2,.cls-3,.cls-4,.cls-5,.cls-6,.cls-7,.cls-8,.cls-9,.cls-10,.cls-11,.cls-12,.cls-13{stroke-width:0px;}.cls-2{fill:#fefefe;}.cls-3{fill:url(#linear-gradient);}.cls-4{opacity:.1;}.cls-4,.cls-8{isolation:isolate;}.cls-4,.cls-8,.cls-11{fill-rule:evenodd;}.cls-5{fill:url(#linear-gradient-5);}.cls-6{fill:#4467ad;}.cls-7,.cls-11{fill:#fff;}.cls-8{opacity:.05;}.cls-9{fill:#a9c6d8;}.cls-10{fill:url(#linear-gradient-2);}.cls-12{fill:url(#linear-gradient-3);}.cls-13{fill:url(#linear-gradient-4);}</style><linearGradient id="linear-gradient" x1="665.14" y1="171.35" x2="665.14" y2="36.35" gradientUnits="userSpaceOnUse"><stop offset="0" stop-color="#78cd51"/><stop offset="1" stop-color="#a0fc84"/></linearGradient><linearGradient id="linear-gradient-2" x1="279.01" y1="181.15" x2="279.01" y2="46.15" gradientUnits="userSpaceOnUse"><stop offset="0" stop-color="#1d93d2"/><stop offset="1" stop-color="#38b0e3"/></linearGradient><linearGradient id="linear-gradient-3" x1="-599.55" y1="233.49" x2="-599.3" y2="231.91" gradientTransform="translate(20434.35 7851.05) scale(33.33 -33.33)" gradientUnits="userSpaceOnUse"><stop offset=".01" stop-color="#00b7f0"/><stop offset=".34" stop-color="#009de5"/><stop offset=".76" stop-color="#0082d9"/><stop offset="1" stop-color="#0078d4"/></linearGradient><linearGradient id="linear-gradient-4" x1="-599.01" y1="231.14" x2="-597.61" y2="231.95" gradientTransform="translate(20434.35 7851.05) scale(33.33 -33.33)" gradientUnits="userSpaceOnUse"><stop offset="0" stop-color="#0078d4"/><stop offset=".37" stop-color="#007ad5"/><stop offset=".57" stop-color="#0082d9"/><stop offset=".73" stop-color="#0090df"/><stop offset=".88" stop-color="#00a3e7"/><stop offset="1" stop-color="#00bcf2"/></linearGradient><linearGradient id="linear-gradient-5" x1="-599.37" y1="232.98" x2="-598.09" y2="230.78" gradientTransform="translate(20434.35 7851.05) scale(33.33 -33.33)" gradientUnits="userSpaceOnUse"><stop offset="0" stop-color="#00b7f0"/><stop offset="1" stop-color="#007cc1"/></linearGradient></defs><circle class="cls-3" cx="665.14" cy="113.65" r="67.5"/><g id="WA_Logo"><path class="cls-11" d="m697.61,82.02c-8.08-8.09-18.84-12.55-30.29-12.55-23.6,0-42.81,19.2-42.82,42.8,0,7.54,1.97,14.91,5.72,21.4l-6.07,22.18,22.7-5.95c6.25,3.41,13.3,5.21,20.46,5.21h.02s0,0,0,0c23.6,0,42.81-19.2,42.82-42.81,0-11.44-4.45-22.19-12.53-30.28Zm-30.29,65.86h-.01c-6.39,0-12.65-1.72-18.11-4.96l-1.3-.77-13.47,3.53,3.6-13.13-.85-1.35c-3.56-5.66-5.44-12.21-5.44-18.93,0-19.62,15.97-35.58,35.61-35.58,9.51,0,18.44,3.71,25.16,10.43,6.72,6.73,10.42,15.66,10.41,25.17,0,19.62-15.97,35.58-35.59,35.58Zm19.52-26.65c-1.07-.54-6.33-3.12-7.31-3.48-.98-.36-1.69-.54-2.41.54-.71,1.07-2.76,3.48-3.39,4.19-.62.71-1.25.8-2.32.27-1.07-.54-4.52-1.66-8.6-5.31-3.18-2.84-5.33-6.34-5.95-7.41-.62-1.07-.07-1.65.47-2.18.48-.48,1.07-1.25,1.6-1.87.53-.62.71-1.07,1.07-1.78.36-.71.18-1.34-.09-1.87-.27-.54-2.41-5.8-3.3-7.94-.87-2.09-1.75-1.8-2.41-1.84-.62-.03-1.34-.04-2.05-.04s-1.87.27-2.85,1.34c-.98,1.07-3.74,3.66-3.74,8.92s3.83,10.35,4.37,11.06c.53.71,7.54,11.52,18.28,16.15,2.55,1.1,4.55,1.76,6.1,2.25,2.56.81,4.9.7,6.74.42,2.06-.31,6.33-2.59,7.22-5.09.89-2.5.89-4.64.62-5.09-.27-.45-.98-.71-2.05-1.25Z"/></g><circle class="cls-6" cx="85.95" cy="113.65" r="67.5"/><path class="cls-2" d="m91.17,104.45c1.11-1.25,2.02-2.51,3.16-3.58,3.5-3.3,7.64-4.96,12.48-4.92,2.66.02,5.28.21,7.84.95,5.86,1.69,9.26,5.73,10.89,11.45,1.22,4.29,1.44,8.7,1.45,13.12.02,9.32-.03,18.65,0,27.97,0,.87-.24,1.1-1.1,1.1-4.8-.04-9.61-.04-14.41,0-.85,0-1.03-.25-1.03-1.05.03-8.87.03-17.74,0-26.62,0-2.22-.15-4.45-.77-6.61-1.15-3.98-4-6.01-8.17-5.79-5.7.3-8.66,3.12-9.38,8.91-.17,1.38-.26,2.77-.25,4.16,0,8.63,0,17.26.02,25.89,0,.86-.21,1.11-1.09,1.11-4.84-.04-9.68-.04-14.52,0-.78,0-1-.2-1-.99.02-17.08.02-34.17,0-51.25,0-.85.28-1.04,1.08-1.04,4.59.03,9.19.04,13.78,0,.85,0,1.06.27,1.05,1.07-.05,2.04-.02,4.08-.02,6.13Z"/><path class="cls-2" d="m64.85,123.97c0,8.45-.01,16.9.02,25.35,0,.94-.23,1.22-1.2,1.21-4.8-.05-9.6-.04-14.41,0-.77,0-1-.19-1-.98.02-17.11.02-34.22,0-51.34,0-.71.17-.96.92-.96,4.87.03,9.74.04,14.61,0,.94,0,1.06.35,1.06,1.16-.02,8.52-.01,17.04-.01,25.56Z"/><path class="cls-2" d="m66.17,80.3c0,5.31-4.3,9.63-9.6,9.63-5.23,0-9.57-4.32-9.59-9.55-.02-5.28,4.32-9.63,9.61-9.63,5.25,0,9.57,4.31,9.58,9.54Z"/><circle class="cls-10" cx="279.01" cy="113.65" r="67.5"/><path class="cls-1" d="m257.2,118.59l8.01,22.17s1,2.07,2.07,2.07,17.02-16.59,17.02-16.59l17.73-34.25-44.55,20.88-.29,5.72Z"/><path class="cls-9" d="m267.82,124.27l-1.54,16.34s-.64,5.01,4.36,0c5.01-5.01,9.8-8.87,9.8-8.87l-12.62-7.47Z"/><path class="cls-7" d="m257.35,119.38l-16.47-5.37s-1.97-.8-1.33-2.61c.13-.37.39-.69,1.18-1.24,3.65-2.54,67.56-25.52,67.56-25.52,0,0,1.8-.61,2.87-.2.49.18.8.39,1.06,1.16.1.28.15.87.14,1.45,0,.42-.06.82-.1,1.43-.39,6.28-12.04,53.15-12.04,53.15,0,0-.7,2.74-3.19,2.84-.91.03-2.02-.15-3.34-1.29-4.9-4.22-21.84-15.6-25.58-18.1-.21-.14-.27-.32-.31-.5-.05-.26.23-.59.23-.59,0,0,29.49-26.21,30.27-28.96.06-.21-.17-.32-.48-.23-1.96.72-35.91,22.16-39.66,24.53-.22.14-.83.05-.83.05Z"/><circle class="cls-7" cx="472.07" cy="113.65" r="67.5"/><path class="cls-12" d="m480.2,94.46c0,14.76-12.01,26.73-26.81,26.73h0c-14.81,0-26.81-11.97-26.81-26.73h0c0-14.76,12.01-26.73,26.81-26.73h0c14.81,0,26.81,11.97,26.81,26.73h0"/><path class="cls-13" d="m517.57,132.84c0,14.77-12.01,26.74-26.82,26.74s-26.82-11.97-26.82-26.74,12.01-26.74,26.82-26.74,26.82,11.97,26.82,26.74h0"/><path class="cls-8" d="m426.67,96.75c1.22,14.76,14.17,25.73,28.92,24.52,14.76-1.22,25.73-14.17,24.52-28.92-1.04-12.64-10.8-22.82-23.39-24.4-13.82,4.62-24.85,15.19-30.05,28.81h0Z"/><path class="cls-8" d="m517.5,130.92c-1.01-14.78-13.81-25.94-28.59-24.92-14.78,1.01-25.94,13.81-24.92,28.59.9,13.14,11.21,23.69,24.33,24.88,13.44-4.78,24.1-15.22,29.18-28.55h0Z"/><path class="cls-4" d="m427.93,102.86c4.6,14.07,19.73,21.75,33.8,17.15,14.07-4.6,21.75-19.73,17.15-33.8-2.53-7.74-8.44-13.91-16.06-16.77-17.06,3.55-30.61,16.53-34.89,33.42h0Z"/><path class="cls-4" d="m516.28,124.64c-4.49-14.11-19.57-21.91-33.68-17.42-14.11,4.49-21.91,19.57-17.42,33.68,2.57,8.08,8.81,14.47,16.83,17.22,16.84-3.78,30.1-16.74,34.26-33.49h0Z"/><path class="cls-4" d="m428.91,105.39c6,13.53,21.84,19.63,35.36,13.62s19.63-21.84,13.62-35.36c-2.53-5.71-6.98-10.35-12.57-13.13-18.25,2.84-32.78,16.76-36.41,34.87Z"/><path class="cls-4" d="m515.3,122.05c-5.92-13.57-21.72-19.77-35.29-13.84-13.57,5.92-19.77,21.72-13.84,35.29,2.62,6,7.34,10.83,13.28,13.59,18.08-3.07,32.37-17.03,35.86-35.03h0Z"/><path class="cls-5" d="m514.55,113.85c0,23.38-19.01,42.33-42.47,42.33h0c-23.46,0-42.47-18.95-42.47-42.33h0c0-23.38,19.01-42.33,42.47-42.33h0c23.46,0,42.47,18.95,42.47,42.33h0"/><path class="cls-11" d="m460.14,112.38c-1.72-1.13-3.15-2.64-4.18-4.41-1-1.87-1.49-3.98-1.43-6.1-.08-2.7.84-5.32,2.58-7.38,1.81-2.07,4.13-3.62,6.74-4.5,2.83-1,5.81-1.5,8.82-1.48,1.96-.02,3.93.13,5.87.45,1.39.21,2.75.57,4.07,1.05,1.21.41,2.3,1.11,3.18,2.03.65.76,1,1.73.98,2.73.05,1.05-.33,2.07-1.03,2.85-.67.72-1.62,1.11-2.6,1.08-.67,0-1.33-.15-1.93-.43-1.49-.67-3.03-1.23-4.6-1.68-1.45-.38-2.94-.57-4.43-.55-1.95-.07-3.88.42-5.55,1.42-1.44.88-2.29,2.46-2.22,4.15-.01,1.09.4,2.13,1.15,2.92.89.92,1.94,1.68,3.1,2.22,1.3.65,3.24,1.5,5.82,2.57.29.09.56.2.83.33,2.52,1,4.93,2.23,7.2,3.7,1.8,1.17,3.31,2.72,4.43,4.55,1.11,1.92,1.66,4.11,1.6,6.32.09,2.71-.68,5.38-2.22,7.62-1.56,2.12-3.72,3.72-6.2,4.6-2.99,1.07-6.15,1.58-9.32,1.52-4.36.15-8.7-.67-12.7-2.4-1.02-.46-1.92-1.15-2.61-2.03-.58-.81-.87-1.78-.85-2.77-.06-1.06.35-2.09,1.12-2.82.79-.7,1.83-1.06,2.88-1.02,1.18.02,2.33.31,3.37.87,1.29.64,2.31,1.13,3.05,1.45.85.36,1.73.63,2.63.83,1.11.24,2.25.36,3.38.35,2.01.14,4.01-.39,5.68-1.52,1.27-.99,1.98-2.54,1.92-4.15,0-1.13-.43-2.21-1.2-3.03-1.02-1.05-2.22-1.92-3.53-2.57-1.56-.82-3.75-1.82-6.57-3-2.52-1.01-4.94-2.26-7.22-3.75"/></svg>